<svg width="74" height="74" viewBox="0 0 74 74" fill="none" xmlns="http://www.w3.org/2000/svg">
<g clip-path="url(#clip0_3_159)">
<path d="M47.7893 10.313C48.3872 10.313 48.8719 9.82836 48.8719 9.23049C48.8719 8.63262 48.3872 8.14795 47.7893 8.14795C47.1915 8.14795 46.7068 8.63262 46.7068 9.23049C46.7068 9.82836 47.1915 10.313 47.7893 10.313Z" fill="#2B2B2B"/>
<path d="M52.4414 10.313C53.0393 10.313 53.524 9.82836 53.524 9.23049C53.524 8.63262 53.0393 8.14795 52.4414 8.14795C51.8436 8.14795 51.3589 8.63262 51.3589 9.23049C51.3589 9.82836 51.8436 10.313 52.4414 10.313Z" fill="#2B2B2B"/>
<path d="M20.4758 10.3145H39.9569C40.5555 10.3145 41.0409 9.82912 41.0409 9.23047C41.0409 8.63182 40.5555 8.14648 39.9569 8.14648H20.4758C19.8772 8.14648 19.3918 8.63182 19.3918 9.23047C19.3918 9.82912 19.8772 10.3145 20.4758 10.3145Z" fill="#2B2B2B"/>
<path d="M71.1202 59.3696H69.2178V52.2685C69.2178 51.6698 68.7324 51.1845 68.1338 51.1845C67.5351 51.1845 67.0498 51.6698 67.0498 52.2685V59.3696C62.404 59.3696 9.81729 59.3696 6.95036 59.3696V22.7627C6.95036 21.2885 8.14968 20.089 9.62405 20.089H14.7685V23.0093H11.9462C10.8017 23.0093 9.87062 23.9405 9.87062 25.085V54.3736C9.87062 55.5181 10.8017 56.4493 11.9462 56.4493H62.0536C63.1982 56.4493 64.1292 55.5181 64.1292 54.3736V25.085C64.1292 23.9405 63.1982 23.0093 62.0536 23.0093H59.2315V20.089H64.376C65.8502 20.089 67.0496 21.2883 67.0496 22.7627V47.1977C67.0496 47.7964 67.535 48.2817 68.1336 48.2817C68.7323 48.2817 69.2176 47.7964 69.2176 47.1977V22.7627C69.2176 20.0931 67.0457 17.9211 64.376 17.9211H59.2315V5.99145C59.2315 4.76582 58.2344 3.76855 57.0086 3.76855H16.9914C15.7656 3.76855 14.7685 4.76568 14.7685 5.99145V17.9211H9.6239C6.95427 17.9211 4.78225 20.0929 4.78225 22.7627V59.3697H2.87979C1.29182 59.3696 0 60.6615 0 62.2495C0 66.6509 3.58091 70.2318 7.98232 70.2318H66.0177C70.4191 70.2318 74 66.6509 74 62.2495C74 60.6614 72.7082 59.3696 71.1202 59.3696ZM12.0386 25.1772H14.7683V54.2814H12.0386V25.1772ZM61.9614 25.1772V54.2814H59.2317V25.1772H61.9614ZM16.9914 5.93667H57.0088C57.039 5.93667 57.0637 5.96124 57.0637 5.99159V12.5244H25.4164C24.8178 12.5244 24.3324 13.0097 24.3324 13.6084C24.3324 14.207 24.8178 14.6924 25.4164 14.6924H57.0637V54.2815H16.9363V14.6922H20.3487C20.9473 14.6922 21.4327 14.2069 21.4327 13.6082C21.4327 13.0096 20.9473 12.5243 20.3487 12.5243H16.9363V5.99145C16.9363 5.96124 16.961 5.93667 16.9914 5.93667ZM26.5504 61.5376H47.4496V62.627C47.4496 63.2278 46.9608 63.7166 46.36 63.7166H27.64C27.0392 63.7166 26.5504 63.2278 26.5504 62.627V61.5376ZM66.0177 68.0637H7.98232C4.77632 68.0637 2.16797 65.4554 2.16797 62.2494C2.16797 61.857 2.48724 61.5376 2.87979 61.5376H24.3824V62.627C24.3824 64.4233 25.8438 65.8846 27.64 65.8846H46.36C48.1562 65.8846 49.6176 64.4233 49.6176 62.627V61.5376H71.1202C71.5128 61.5376 71.832 61.8568 71.832 62.2494C71.832 65.4555 69.2237 68.0637 66.0177 68.0637Z" fill="#2B2B2B"/>
<path d="M22.5481 34.8115L21.7623 35.0139C20.0178 35.4633 18.9695 37.2389 19.419 38.9836L19.9617 41.0903C20.3401 42.5592 21.6673 43.5371 23.1187 43.537C23.7424 43.537 24.0905 43.3735 24.8461 43.1979C25.3955 43.838 26.2329 44.1925 27.1008 44.1093L30.902 49.871C31.2972 50.4701 31.962 50.8157 32.657 50.8157C33.0878 50.8157 33.2741 50.7082 34.4117 50.4321C35.5368 50.1425 36.213 48.9972 35.9232 47.8719L34.4738 42.2464L36.0206 41.848C40.1412 40.7865 44.4811 41.8024 47.6977 44.5644L47.7113 44.6172C47.9201 45.428 48.4323 46.1089 49.1534 46.5345C49.6425 46.8233 50.188 46.971 50.7414 46.971C51.0038 46.971 51.268 46.9378 51.5288 46.8706C52.3396 46.6617 53.0205 46.1495 53.4461 45.4284C53.8718 44.7074 53.9912 43.8637 53.7822 43.0531L48.0006 20.6126C47.7918 19.8017 47.2796 19.1209 46.5585 18.6952C45.8376 18.2697 44.9939 18.1503 44.183 18.3592C43.3722 18.568 42.6913 19.0802 42.2656 19.8013C41.84 20.5224 41.7206 21.366 41.9296 22.1767L41.9432 22.2294C40.4617 26.2019 37.153 29.1886 33.0325 30.2502L24.5214 32.443C23.3956 32.7331 22.628 33.7114 22.5481 34.8115ZM23.3907 41.3341C22.8081 41.4843 22.2115 41.1324 22.0612 40.5495L21.5185 38.4428C21.3679 37.8585 21.7189 37.264 22.3033 37.1134L22.9542 36.9456L24.0417 41.1665L23.3907 41.3341ZM33.8074 48.3491L32.686 48.638L29.3415 43.5688L32.3743 42.7874L33.8074 48.3491ZM44.1325 20.9032C44.2638 20.6809 44.4738 20.523 44.7238 20.4585C44.8045 20.4377 44.8853 20.4279 44.9649 20.4279C45.3953 20.4279 45.7889 20.7179 45.9012 21.1534L51.6827 43.5939C51.8157 44.11 51.5039 44.6381 50.9878 44.7711C50.4718 44.9041 49.9436 44.5925 49.8106 44.0762L44.0289 21.6357C43.9646 21.3857 44.0013 21.1256 44.1325 20.9032ZM42.7793 25.4745L46.8616 41.3191C41.0175 37.9137 35.4518 39.7816 35.3229 39.7888L33.4167 32.3898C33.5338 32.3335 39.302 31.2904 42.7793 25.4745ZM25.0622 34.5425L31.3172 32.931L33.2235 40.3299C31.32 40.8203 28.2818 41.6031 26.9686 41.9415C26.5142 42.0581 26.3994 41.5979 26.3879 41.5835L24.7221 35.1186C24.6571 34.8659 24.8097 34.6075 25.0622 34.5425Z" fill="#2B2B2B"/>
</g>
<defs>
<clipPath id="clip0_3_159">
<rect width="74" height="74" fill="white"/>
</clipPath>
</defs>
</svg>
