<svg width="220" height="40" viewBox="0 0 220 40" fill="none" xmlns="http://www.w3.org/2000/svg">
<rect width="220" height="40" fill="#FFB400"/>
<path d="M44.4545 24C47.5568 24 49.3963 22.081 49.3963 18.8991C49.3963 15.7273 47.5568 13.8182 44.5241 13.8182H41.0043V24H44.4545ZM42.8487 22.4041V15.4141H44.4197C46.4879 15.4141 47.5668 16.5675 47.5668 18.8991C47.5668 21.2408 46.4879 22.4041 44.3651 22.4041H42.8487ZM60.2468 18.9091C60.2468 15.6179 58.2383 13.679 55.5685 13.679C52.8938 13.679 50.8903 15.6179 50.8903 18.9091C50.8903 22.1953 52.8938 24.1392 55.5685 24.1392C58.2383 24.1392 60.2468 22.2003 60.2468 18.9091ZM58.3924 18.9091C58.3924 21.2259 57.229 22.4837 55.5685 22.4837C53.913 22.4837 52.7447 21.2259 52.7447 18.9091C52.7447 16.5923 53.913 15.3345 55.5685 15.3345C57.229 15.3345 58.3924 16.5923 58.3924 18.9091ZM63.8736 24H65.6932L67.7365 16.8558H67.8161L69.8544 24H71.674L74.5476 13.8182H72.5639L70.7294 21.3054H70.6399L68.6761 13.8182H66.8714L64.9126 21.3004H64.8182L62.9837 13.8182H61L63.8736 24ZM84.1937 13.8182H82.3592V20.7585H82.2697L77.4771 13.8182H75.8265V24H77.671V17.0646H77.7555L82.5531 24H84.1937V13.8182ZM86.2035 24H92.5323V22.4538H88.0479V13.8182H86.2035V24ZM102.835 18.9091C102.835 15.6179 100.826 13.679 98.1564 13.679C95.4817 13.679 93.4782 15.6179 93.4782 18.9091C93.4782 22.1953 95.4817 24.1392 98.1564 24.1392C100.826 24.1392 102.835 22.2003 102.835 18.9091ZM100.98 18.9091C100.98 21.2259 99.8169 22.4837 98.1564 22.4837C96.5009 22.4837 95.3326 21.2259 95.3326 18.9091C95.3326 16.5923 96.5009 15.3345 98.1564 15.3345C99.8169 15.3345 100.98 16.5923 100.98 18.9091ZM105.339 24L106.179 21.4893H110.007L110.853 24H112.821L109.232 13.8182H106.955L103.37 24H105.339ZM106.676 20.0078L108.054 15.9062H108.133L109.51 20.0078H106.676ZM117.613 24C120.715 24 122.555 22.081 122.555 18.8991C122.555 15.7273 120.715 13.8182 117.682 13.8182H114.162V24H117.613ZM116.007 22.4041V15.4141H117.578C119.646 15.4141 120.725 16.5675 120.725 18.8991C120.725 21.2408 119.646 22.4041 117.523 22.4041H116.007ZM136.495 17.2536C136.182 14.9915 134.442 13.679 132.184 13.679C129.525 13.679 127.521 15.6179 127.521 18.9091C127.521 22.1953 129.5 24.1392 132.184 24.1392C134.606 24.1392 136.211 22.5732 136.495 20.6293L134.635 20.6193C134.402 21.8125 133.427 22.4837 132.209 22.4837C130.559 22.4837 129.376 21.2457 129.376 18.9091C129.376 16.6122 130.549 15.3345 132.214 15.3345C133.452 15.3345 134.422 16.0355 134.635 17.2536H136.495ZM139.546 13.8182H137.523L141.107 24H143.384L146.974 13.8182H144.945L142.3 21.8324H142.196L139.546 13.8182Z" fill="#2B2B2B"/>
<g clip-path="url(#clip0_3_71)">
<path d="M169.333 24.9523H178.667V20.2856H179.833V25.619C179.833 25.7958 179.772 25.9654 179.663 26.0904C179.553 26.2154 179.405 26.2856 179.25 26.2856H168.75C168.595 26.2856 168.447 26.2154 168.338 26.0904C168.228 25.9654 168.167 25.7958 168.167 25.619V20.2856H169.333V24.9523ZM175.167 18.2856H178.083L174 22.9523L169.917 18.2856H172.833V14.2856H175.167V18.2856Z" fill="#2B2B2B"/>
</g>
<defs>
<clipPath id="clip0_3_71">
<rect width="14" height="16" fill="white" transform="translate(167 12.2856)"/>
</clipPath>
</defs>
</svg>
