<svg width="140" height="140" viewBox="0 0 140 140" fill="none" xmlns="http://www.w3.org/2000/svg">
<g clip-path="url(#clip0_2_1144)">
<path d="M28.2573 56.929C28.2742 57.6382 28.1929 58.3716 28.0101 59.1292C27.8272 59.8869 27.5699 60.6203 27.2414 61.3295C26.8215 62.2255 26.3136 63.0351 25.7176 63.7547C25.1217 64.4742 24.4783 65.0935 23.7841 65.6194C23.1441 66.0864 22.4737 66.4427 21.7694 66.6849C21.065 66.9271 20.3844 67.0482 19.7275 67.0482H19.6191C18.7963 67.0309 18.0547 66.8371 17.3978 66.4739C16.7409 66.1106 16.1923 65.5813 15.7521 64.8894C15.4609 65.3945 15.2036 65.8477 14.9835 66.249C14.7634 66.6503 14.5805 66.9651 14.4349 67.1865C13.0804 69.4456 11.8038 71.1373 10.595 72.2582C9.9008 72.874 9.20664 73.3376 8.50908 73.6455C7.81492 73.9534 7.09366 74.1091 6.34193 74.1091C5.26174 74.1091 4.44906 73.8185 3.9005 73.2407C3.38918 72.6803 3.13184 71.9607 3.13184 71.082C3.13184 70.3174 3.3113 69.4975 3.66685 68.6292C4.0224 67.7608 4.51339 66.934 5.13307 66.1487C5.8103 65.2907 6.54171 64.6265 7.32731 64.1594C8.1129 63.6924 8.89172 63.4571 9.657 63.4571C10.297 63.4571 10.8185 63.6439 11.2214 64.0176C11.5702 64.3532 11.7429 64.8133 11.7429 65.391C11.7429 65.8753 11.621 66.3908 11.3738 66.9305C11.1266 67.4737 10.7948 67.9753 10.3715 68.4423C9.93128 68.9301 9.44706 69.3107 8.91881 69.5909C8.29576 69.9092 7.69302 70.0683 7.10721 70.0683C6.9616 70.0683 6.84308 70.0234 6.75166 69.9265C6.66023 69.8331 6.61621 69.712 6.61621 69.5632C6.61621 69.4145 6.66023 69.2969 6.75166 69.2138C6.84308 69.1308 6.9616 69.0893 7.10721 69.0893C7.54741 69.0893 7.98762 68.9786 8.43798 68.7537C8.88495 68.5288 9.30145 68.2036 9.68409 67.7747C10.0125 67.401 10.2767 66.9997 10.4798 66.5707C10.6796 66.1417 10.7812 65.7508 10.7812 65.3945C10.7812 65.3011 10.7711 65.1973 10.7541 65.0866C10.7372 64.9759 10.6864 64.8721 10.6017 64.7787C10.5205 64.6853 10.4053 64.6057 10.2597 64.54C10.1141 64.4742 9.91096 64.4431 9.657 64.4431C9.03394 64.4431 8.39395 64.6437 7.73704 65.0451C7.08012 65.4464 6.45706 66.0207 5.87125 66.7679C5.32269 67.4598 4.88926 68.1863 4.56757 68.9544C4.24589 69.7189 4.08674 70.4316 4.08674 71.0854C4.08674 71.722 4.25266 72.2064 4.58112 72.5419C4.92651 72.9329 5.51232 73.13 6.33516 73.13C7.56096 73.13 8.75628 72.5869 9.92789 71.5041C11.0792 70.4593 12.305 68.8506 13.6019 66.6849C13.7475 66.4427 13.9439 66.1106 14.1911 65.6885C14.4383 65.2699 14.7126 64.7891 15.0139 64.2459C15.3153 63.7028 15.6268 63.1215 15.9451 62.4954C16.2634 61.8692 16.5716 61.2292 16.8628 60.5753C17.303 59.6239 17.645 58.7971 17.8922 58.0948C18.1394 57.396 18.3121 56.7906 18.4137 56.2889C18.5152 55.7838 18.5593 55.3756 18.5491 55.0573C18.5389 54.739 18.5085 54.4865 18.4543 54.2997C18.3459 53.9641 18.1428 53.7392 17.8515 53.6285C17.4317 53.459 17.0152 53.4002 16.6054 53.4452C16.1923 53.4936 15.7995 53.6043 15.427 53.7807C15.0512 53.9572 14.7058 54.1959 14.3841 54.4969C14.0624 54.7944 13.7847 55.1127 13.5477 55.4483C13.1651 56.0468 12.9247 56.6245 12.8332 57.185C12.796 57.3718 12.7926 57.5759 12.8197 57.8007C12.8468 58.0256 12.9416 58.2401 13.1075 58.4442C13.4732 58.894 13.9202 58.9286 14.4518 58.5549C14.8345 58.3128 15.1291 57.9668 15.3288 57.5171C15.5286 57.1261 15.5659 56.7975 15.4372 56.538C15.3085 56.2405 15.3898 56.026 15.6844 55.8946C15.7928 55.8392 15.9113 55.8288 16.0399 55.8669C16.1686 55.9049 16.26 55.9879 16.3142 56.1194C16.4429 56.3823 16.4937 56.666 16.4666 56.9739C16.4395 57.2818 16.3582 57.5863 16.2194 57.8838C16.084 58.1813 15.9079 58.4685 15.6979 58.7383C15.488 59.0081 15.2544 59.2296 14.997 59.3956C14.594 59.6585 14.1572 59.7866 13.6798 59.7866C13.2057 59.7693 12.7655 59.534 12.3626 59.0877C11.9224 58.5446 11.7598 57.863 11.8682 57.0431C11.9765 56.3131 12.2711 55.597 12.7452 54.8843C13.0364 54.4727 13.3852 54.0852 13.7881 53.7219C14.1911 53.3587 14.6279 53.0681 15.1054 52.8536C15.5794 52.6391 16.0806 52.5076 16.5987 52.4627C17.1201 52.4177 17.645 52.4938 18.1766 52.7014C18.7252 52.9262 19.118 53.3449 19.355 53.9607C19.4464 54.2789 19.4972 54.6387 19.5074 55.04C19.5175 55.4413 19.4668 55.8945 19.355 56.3996C19.8494 55.8565 20.3438 55.3894 20.8348 54.9985C21.512 54.4208 22.1892 53.9606 22.8631 53.6251C23.5403 53.2895 24.1702 53.075 24.756 52.9816C25.7989 52.8328 26.6116 53.075 27.1974 53.7116C27.9085 54.4173 28.2573 55.4898 28.2573 56.929ZM26.3644 60.9074C27.0213 59.5824 27.3328 58.2643 27.2956 56.9566C27.2956 56.3789 27.2313 55.8703 27.1026 55.431C26.9739 54.9916 26.7809 54.6526 26.5269 54.4069C26.1782 53.9952 25.6398 53.8465 24.9083 53.9572C24.414 54.0333 23.8654 54.2236 23.2627 54.5315C22.6599 54.8394 22.0572 55.2476 21.4511 55.7492C20.828 56.2543 20.2659 56.8079 19.7647 57.4167C19.2602 58.0256 18.8369 58.6449 18.4881 59.2814C18.4881 59.2987 18.4848 59.3091 18.4746 59.3091C18.4644 59.3091 18.4611 59.3195 18.4611 59.3368C18.3527 59.5997 18.241 59.8661 18.1326 60.1359C18.0242 60.4058 17.8956 60.6929 17.75 60.9905C17.2759 62.018 16.7917 62.9797 16.2973 63.8757C16.6258 64.5849 17.0795 65.1212 17.6551 65.4879C18.2308 65.8511 18.8945 66.0449 19.6428 66.0622C20.2286 66.0795 20.828 65.9826 21.4409 65.7681C22.0538 65.5536 22.6531 65.2319 23.239 64.8029C23.8789 64.3359 24.4648 63.7754 24.993 63.1215C25.5212 62.4677 25.9784 61.7308 26.3644 60.9074Z" fill="#767676"/>
<path d="M34.0147 68.695C34.1061 68.7884 34.1569 68.8991 34.167 69.0306C34.1772 69.1621 34.1332 69.2728 34.0451 69.3662C34.0282 69.4042 33.825 69.6291 33.4424 70.0373C33.0597 70.449 32.545 70.9057 31.9051 71.4108C30.1307 72.7739 28.5223 73.4554 27.0798 73.4554C26.3111 73.4554 25.7321 73.3171 25.3393 73.0368C24.9465 72.7566 24.6586 72.466 24.4758 72.1685C24.127 71.5527 24.0288 70.7812 24.1744 69.8575C24.32 68.9337 24.7128 67.9097 25.3528 66.7888C26.2468 65.1628 27.222 63.8377 28.2751 62.8102C29.3248 61.7827 30.3169 61.1842 31.2515 61.0182C31.966 60.9074 32.5586 61.0458 33.0327 61.4402C33.3984 61.7585 33.5981 62.1875 33.6354 62.7306C33.6523 63.2911 33.4796 63.9138 33.1139 64.5954C32.7482 65.2769 32.2166 65.9723 31.5224 66.6815C30.7538 67.4842 29.9411 68.0723 29.081 68.4459C28.3665 68.7642 27.6825 68.9234 27.0256 68.9234C26.6971 68.9234 26.4025 68.8957 26.1486 68.8403C25.8912 68.785 25.6813 68.7192 25.5187 68.6431C25.4273 68.8853 25.3494 69.1136 25.2851 69.3281C25.2207 69.5426 25.17 69.7537 25.1327 69.9578C25.0243 70.7051 25.0853 71.2759 25.3257 71.6668C25.6169 72.21 26.2027 72.4798 27.0798 72.4798C27.8281 72.4798 28.5731 72.2896 29.3146 71.9055C30.0562 71.5215 30.7233 71.0995 31.3159 70.6324C31.9084 70.1654 32.3927 69.7364 32.7685 69.342C33.1444 68.951 33.3306 68.7435 33.3306 68.7262C33.4221 68.6327 33.5304 68.5808 33.6591 68.5705C33.7878 68.5601 33.9063 68.6016 34.0147 68.695ZM26.1723 67.2662C26.135 67.3596 26.091 67.4426 26.0368 67.5188C25.9826 67.5949 25.9352 67.6779 25.898 67.7713C26.0436 67.8094 26.2129 67.8474 26.4059 67.882C26.5989 67.9201 26.8224 67.9374 27.0764 67.9374C28.3394 67.9201 29.5991 67.2731 30.8621 66.0034C31.4479 65.4049 31.8983 64.8237 32.22 64.2529C32.5383 63.682 32.6907 63.1942 32.6737 62.7825C32.6365 62.5404 32.5552 62.3432 32.4265 62.1944C32.1692 61.9695 31.8306 61.9038 31.4107 61.9972C31.045 62.0526 30.6522 62.2186 30.2323 62.4885C29.8124 62.7583 29.3824 63.1112 28.9422 63.5402C27.9534 64.5124 27.0324 65.7544 26.1723 67.2662Z" fill="#767676"/>
<path d="M40.651 61.5786C40.9625 61.6166 41.1182 61.7931 41.1182 62.1113C41.1013 62.2601 41.0404 62.3777 40.9388 62.4608C40.8372 62.5438 40.7255 62.5784 40.5968 62.5576C40.1938 62.5196 39.7198 62.5023 39.1712 62.5023C38.6226 62.5023 38.0741 62.5127 37.5255 62.53C37.1226 63.2011 36.7332 63.8792 36.3607 64.5608C35.9848 65.2423 35.6631 65.865 35.3888 66.4255C34.8572 67.4703 34.4712 68.3456 34.224 69.0444C33.9768 69.7433 33.8075 70.3106 33.7161 70.7396C33.6247 71.1686 33.5976 71.4973 33.6348 71.7187C33.6721 71.9436 33.7161 72.0923 33.7736 72.1685C33.7906 72.2065 33.838 72.2584 33.9091 72.3241C33.9836 72.3899 34.136 72.421 34.3764 72.421C34.6879 72.421 35.0672 72.3138 35.5141 72.0993C35.9611 71.8848 36.4521 71.5803 36.9803 71.1894C37.4205 70.8538 37.8607 70.4732 38.3111 70.0546C38.7581 69.6326 39.1475 69.2174 39.476 68.8092C39.5674 68.7157 39.6757 68.6604 39.8044 68.6396C39.9331 68.6223 40.0516 68.6569 40.16 68.7503C40.2514 68.8438 40.3056 68.9545 40.3259 69.0859C40.3428 69.2174 40.309 69.3385 40.2175 69.4492C39.8518 69.8782 39.4353 70.3141 38.9714 70.7535C38.5041 71.1928 38.0267 71.5976 37.5323 71.9713C36.2896 72.9227 35.2365 73.4001 34.3798 73.4001C33.9599 73.4001 33.6382 73.3205 33.4215 73.1614C33.2014 73.0022 33.0456 72.8396 32.9542 72.6701C32.6054 72.1096 32.5986 71.2136 32.9271 69.9785C33.2014 68.9337 33.7398 67.5983 34.5457 65.9723C34.803 65.4672 35.0841 64.9205 35.3956 64.3324C35.7071 63.7443 36.0458 63.1423 36.4115 62.5265C36.1541 62.5438 35.9205 62.5576 35.7105 62.568C35.5006 62.5784 35.3211 62.5818 35.1755 62.5818C34.9927 62.5991 34.8267 62.6095 34.6811 62.6095H34.654C34.3628 62.6095 34.1969 62.4504 34.1597 62.1321C34.1597 61.9833 34.2003 61.8623 34.2816 61.7688C34.3628 61.6754 34.478 61.627 34.6236 61.627C34.6608 61.627 34.9012 61.6166 35.3516 61.5993C35.7986 61.582 36.3437 61.5613 36.9837 61.544C37.3122 60.9835 37.6271 60.4507 37.9285 59.9456C38.2298 59.4405 38.494 58.9942 38.7242 58.5998C38.9511 58.2089 39.2118 57.7799 39.5064 57.3094C39.5809 57.1987 39.6791 57.1226 39.8078 57.0845C39.9365 57.0464 40.055 57.0672 40.1633 57.1399C40.4376 57.3267 40.4918 57.5619 40.3293 57.8422C40.0719 58.2331 39.845 58.5998 39.6453 58.9354C39.4455 59.271 39.2118 59.6585 38.9443 60.0978C38.6802 60.5372 38.3992 61.0077 38.1079 61.5128C38.582 61.5128 39.0459 61.5128 39.4929 61.5128C39.9331 61.5232 40.3225 61.5405 40.651 61.5786Z" fill="#767676"/>
<path d="M48.9864 68.7538C49.0779 68.8472 49.132 68.9579 49.1524 69.0893C49.1693 69.2208 49.1354 69.3419 49.044 69.4526C49.0068 69.4906 48.9627 69.5356 48.9086 69.591C48.8544 69.6463 48.807 69.7017 48.7731 69.7605C47.9333 70.8053 47.1647 71.6771 46.4705 72.3655C45.7763 73.0574 45.1364 73.4034 44.5505 73.4034C44.0392 73.4034 43.6634 73.1993 43.4263 72.7876C43.1893 72.3378 43.1893 71.6875 43.4263 70.826C43.6634 69.9854 44.1747 68.8645 44.9637 67.4634C45.1093 67.2004 45.1194 66.7784 44.9907 66.1903C44.8621 65.6021 44.6081 64.9068 44.2221 64.1042C43.7277 64.8134 43.1554 65.6091 42.5087 66.4843C41.8585 67.363 41.1068 68.3421 40.2467 69.4249C40.1553 69.5356 40.0469 69.6014 39.9182 69.6221C39.7896 69.6394 39.6812 69.6048 39.5898 69.5114C39.4814 69.418 39.4171 69.3073 39.3968 69.1758C39.3798 69.0444 39.4137 68.9233 39.5051 68.8126C41.3337 66.4774 42.7322 64.592 43.7006 63.1528C43.5347 62.7999 43.4907 62.3744 43.5652 61.8797C43.6363 61.385 43.7209 60.9802 43.8124 60.6619C43.8496 60.5685 43.9004 60.4232 43.9647 60.226C44.0291 60.0288 44.1171 59.8213 44.2255 59.5964C44.3338 59.3715 44.4591 59.1467 44.5946 58.9252C44.7334 58.7004 44.8925 58.5136 45.0754 58.3648C45.2752 58.1953 45.4851 58.1088 45.7052 58.0984C45.9253 58.0881 46.1251 58.1676 46.308 58.3371C46.6906 58.6727 46.7753 59.2262 46.5552 59.9908C46.3554 60.5893 45.9795 61.3469 45.431 62.2602C45.3395 62.409 45.2447 62.5647 45.1431 62.7238C45.0415 62.883 44.9366 63.0455 44.8282 63.2151C46.0168 65.4395 46.3351 67.024 45.7865 67.9788C45.3124 68.8195 44.9603 69.5114 44.73 70.0511C44.4998 70.5942 44.3508 71.0267 44.2763 71.3553C44.2018 71.684 44.1747 71.9158 44.195 72.0542C44.2119 72.196 44.2322 72.2825 44.2492 72.3205C44.2661 72.3378 44.2932 72.3621 44.3304 72.3897C44.3677 72.4174 44.4388 72.4313 44.5505 72.4313C44.642 72.4313 44.8079 72.369 45.0449 72.2479C45.282 72.1268 45.6206 71.8431 46.0608 71.3934C46.4096 71.0751 46.7448 70.7153 47.0766 70.314C47.4051 69.9127 47.7268 69.5252 48.0349 69.1516C48.0722 69.0963 48.1162 69.0409 48.1704 68.9821C48.2245 68.9267 48.272 68.8714 48.3058 68.8126C48.3972 68.7192 48.5056 68.6638 48.6343 68.6431C48.7596 68.6223 48.8781 68.6604 48.9864 68.7538ZM44.5438 61.8589C44.5607 61.8209 44.5742 61.8001 44.5844 61.7897C44.5946 61.7794 44.6081 61.7586 44.625 61.7205C44.9163 61.2362 45.1364 60.8349 45.282 60.5166C45.4276 60.1984 45.5393 59.9389 45.6104 59.7313C45.6849 59.5272 45.7188 59.3785 45.7188 59.2816C45.7188 59.1882 45.7086 59.1224 45.6917 59.0844C45.6172 59.1397 45.5122 59.2608 45.3768 59.4476C45.2379 59.6345 45.0991 59.9147 44.9501 60.2883C44.8418 60.5685 44.7537 60.8453 44.6894 61.1151C44.6318 61.3884 44.581 61.6341 44.5438 61.8589Z" fill="#767676"/>
<path d="M56.3387 68.8922C56.1016 69.3212 55.8003 69.7986 55.4346 70.321C55.0688 70.8434 54.649 71.345 54.1715 71.819C53.6974 72.2964 53.1692 72.6908 52.5935 73.0091C52.0179 73.3274 51.4016 73.4865 50.7413 73.4865C50.0844 73.4865 49.5765 73.355 49.2175 73.0956C48.862 72.8327 48.6012 72.5628 48.4353 72.2826C48.0324 71.5907 47.9308 70.6947 48.1339 69.5911C48.3337 68.5463 48.7638 67.4254 49.4241 66.2284C49.6814 65.7786 50.0268 65.2493 50.467 64.6301C50.9072 64.0143 51.4185 63.4158 52.0043 62.838C52.2244 62.6132 52.475 62.3848 52.7595 62.153C53.0439 61.9212 53.3351 61.7102 53.6365 61.5234C53.9379 61.3366 54.2494 61.1844 54.5677 61.0598C54.886 60.9387 55.2043 60.8765 55.5124 60.8765C55.658 60.8765 55.7766 60.9249 55.868 61.0183C55.9594 61.1117 56.0034 61.2328 56.0034 61.3816C56.0034 61.5303 55.9594 61.648 55.868 61.731C55.7766 61.814 55.658 61.8555 55.5124 61.8555C55.1467 61.8555 54.7167 62.0008 54.2223 62.2914C53.7279 62.582 53.2166 62.9972 52.685 63.5369C52.1364 64.08 51.6522 64.6404 51.2323 65.2182C50.8124 65.7959 50.484 66.2941 50.2435 66.7023C49.6408 67.7852 49.2548 68.8023 49.0922 69.7571C48.9263 70.5978 48.9906 71.2689 49.2852 71.774C49.5223 72.2618 50.0065 72.504 50.7379 72.504C51.1206 72.504 51.4863 72.4244 51.835 72.2653C52.1838 72.1061 52.5157 71.9055 52.8373 71.6633C53.1556 71.4212 53.4536 71.1513 53.7279 70.8503C54.0022 70.5528 54.2494 70.2622 54.4695 69.982C54.6151 69.7952 54.7438 69.6118 54.8521 69.4354C54.9605 69.2589 55.0722 69.086 55.1806 68.9164C54.7979 68.8784 54.4898 68.785 54.2629 68.6362C54.0327 68.4875 53.8566 68.3387 53.7279 68.1865C53.3453 67.7367 53.1523 67.159 53.1523 66.4498C53.1523 66.0208 53.2166 65.5814 53.3453 65.1317C53.4739 64.682 53.6636 64.2737 53.9209 63.9001C54.5237 63.0041 55.2111 62.5544 55.9763 62.5544C56.5622 62.5544 57.0091 62.8069 57.3207 63.312C57.6119 63.779 57.7372 64.3879 57.6898 65.1317C57.6423 65.879 57.4019 66.7196 56.9617 67.6537C56.8161 67.9512 56.6976 68.19 56.6062 68.3698C56.5215 68.5532 56.4301 68.7262 56.3387 68.8922ZM55.9831 63.5403C55.763 63.5403 55.5429 63.6233 55.3262 63.7929C55.1061 63.9624 54.9063 64.1838 54.7235 64.464C54.5406 64.7442 54.395 65.0556 54.2833 65.4016C54.1749 65.7475 54.1173 66.0969 54.1173 66.4532C54.1173 66.602 54.1343 66.7819 54.1715 66.986C54.2087 67.1901 54.3002 67.377 54.4458 67.5465C54.6828 67.8267 55.0655 67.9685 55.5971 67.9685H55.7359C55.8274 67.7817 55.9018 67.6364 55.956 67.5326C56.0102 67.4288 56.0474 67.37 56.0644 67.3493C56.3217 66.7715 56.4944 66.2768 56.5859 65.8651C56.6773 65.4534 56.7213 65.1075 56.7213 64.8273C56.7213 64.547 56.6976 64.3291 56.6536 64.17C56.6096 64.0108 56.5655 63.9036 56.5317 63.8482C56.3827 63.6441 56.2032 63.5403 55.9831 63.5403Z" fill="#767676"/>
<path d="M59.4102 74.9155C58.8786 74.9155 58.479 74.8047 58.2047 74.5799C57.9305 74.355 57.7205 74.1301 57.5749 73.9087C57.155 73.1614 57.1279 72.0682 57.4936 70.629C57.6596 69.9578 57.9135 69.2244 58.2623 68.4287C58.6111 67.6365 59.031 66.8096 59.5254 65.9482C59.7624 65.5365 60.0502 65.0383 60.3888 64.4502C60.7275 63.862 61.0796 63.2497 61.4453 62.6131C61.811 61.98 62.1767 61.3469 62.5425 60.7207C62.9082 60.0945 63.2332 59.5306 63.5143 59.0255C63.7987 58.5204 64.0324 58.1156 64.2152 57.8077C64.3981 57.4998 64.4895 57.3372 64.4895 57.3165C64.6554 57.0535 64.8722 56.9982 65.1464 57.1469C65.4038 57.3165 65.458 57.5379 65.3124 57.8181C65.3124 57.8354 65.2209 58.0015 65.0381 58.3094C64.8552 58.6173 64.6216 59.0186 64.3371 59.5133C64.0527 60.008 63.7276 60.5754 63.3653 61.2085C62.9996 61.8451 62.6339 62.4782 62.2682 63.1148C61.9025 63.7513 61.5503 64.3602 61.2117 64.9518C60.8731 65.5399 60.5852 66.0416 60.3482 66.4498C59.8741 67.2732 59.4712 68.0551 59.1427 68.8024C58.8143 69.5496 58.5671 70.2415 58.4012 70.8747C58.1099 72.0336 58.1167 72.8847 58.4282 73.4244C58.6111 73.76 58.9396 73.9295 59.417 73.9295C59.7624 73.9295 60.0875 73.8188 60.3888 73.5939C60.6902 73.369 60.9611 73.0992 61.1981 72.7809C61.4352 72.4626 61.6417 72.1374 61.8144 71.8018C61.9871 71.4662 62.1293 71.186 62.2411 70.9611L62.2953 70.9058C62.4239 70.6255 62.6339 70.5494 62.9251 70.6809C63.0538 70.7363 63.135 70.8297 63.1723 70.9611C63.2095 71.0926 63.1994 71.2137 63.1452 71.3244L63.1181 71.4074C62.9894 71.6704 62.8167 71.9956 62.5966 72.3865C62.3765 72.7774 62.1158 73.1615 61.8144 73.5351C61.5131 73.9087 61.1609 74.2305 60.7579 74.5003C60.3516 74.7805 59.9046 74.9155 59.4102 74.9155Z" fill="#767676"/>
<path d="M75.4552 61.6654C74.7983 62.731 74.2159 63.7792 73.7147 64.8171C73.2102 65.855 72.814 66.8479 72.5228 67.8028C72.2315 68.7542 72.0656 69.5948 72.0284 70.3248C71.9911 71.0548 72.0927 71.6326 72.3297 72.0616C72.621 72.6393 73.1898 72.9299 74.0296 72.9299C75.2554 72.9299 76.6912 71.9197 78.3368 69.9028C79.0513 69.0067 79.7082 68.083 80.311 67.1281C80.9137 66.1767 81.425 65.343 81.8483 64.6337C81.9567 64.4469 82.0583 64.2739 82.1497 64.1148C82.2411 63.9556 82.3325 63.8104 82.424 63.6789C82.424 63.6616 82.4273 63.6512 82.4375 63.6512C82.4477 63.6512 82.4511 63.6408 82.4511 63.6235C82.7998 62.987 83.1317 62.3781 83.4534 61.7865C83.7717 61.1983 84.0798 60.6621 84.371 60.1743C84.4252 60.0428 84.5166 59.9598 84.6453 59.9217C84.774 59.8837 84.9027 59.9044 85.0279 59.9771C85.1363 60.0532 85.2108 60.1535 85.248 60.285C85.2853 60.4164 85.265 60.5375 85.1939 60.6483C84.7909 61.3402 84.3676 62.1047 83.9173 62.9454C83.4703 63.7861 83.0132 64.6441 82.5459 65.5229C82.0786 66.4016 81.6181 67.2803 81.1609 68.1556C80.7038 69.0344 80.2771 69.8543 79.8843 70.6224C79.4915 71.3869 79.1427 72.0754 78.8414 72.6808C78.54 73.2897 78.3064 73.7499 78.1404 74.0681C78.3402 73.9574 78.5468 73.8398 78.7567 73.7187C78.9667 73.5976 79.1834 73.4627 79.4001 73.314C80.0943 72.8642 80.8629 72.2864 81.7027 71.5772C82.5425 70.868 83.3856 69.9443 84.2254 68.8026C84.3168 68.6919 84.4252 68.6262 84.5539 68.6054C84.6825 68.5881 84.8011 68.6158 84.9094 68.6884C85.0009 68.7818 85.0618 68.8925 85.0889 69.024C85.116 69.1555 85.0855 69.2766 84.9941 69.3873C84.0967 70.5843 83.2062 71.5495 82.319 72.2864C81.4318 73.0233 80.6327 73.6357 79.9182 74.1235C79.4441 74.4418 78.9904 74.7151 78.5603 74.9504C78.1303 75.1856 77.7239 75.3759 77.3413 75.5247C76.7555 76.4761 76.1527 77.251 75.5297 77.8495C74.6527 78.6902 73.8738 79.1192 73.2 79.14H73.1187C72.5871 79.14 72.2045 78.9359 71.9674 78.5242C71.7846 78.2439 71.7473 77.9083 71.8591 77.5139C71.9674 77.1403 72.2011 76.784 72.56 76.4484C72.9156 76.1128 73.349 75.8499 73.8637 75.663C73.972 75.625 74.1007 75.5835 74.2463 75.5385C74.3919 75.4901 74.5477 75.4416 74.7136 75.3828C74.971 75.3067 75.2622 75.2202 75.5906 75.1164C75.9191 75.0126 76.2848 74.8881 76.6878 74.7393C76.7419 74.6459 76.8029 74.5421 76.8672 74.4314C76.9316 74.3207 76.9891 74.2065 77.0467 74.0958C77.084 74.0578 77.2397 73.7637 77.514 73.2136C77.7883 72.6636 78.1371 71.9682 78.5569 71.1275C77.9339 71.8367 77.3142 72.4248 76.6911 72.8919C75.7599 73.563 74.8728 73.9021 74.0296 73.9021C73.2779 73.9021 72.709 73.7533 72.3162 73.4523C71.9234 73.1548 71.6457 72.8469 71.4798 72.5286C70.8771 71.4077 70.9143 69.7367 71.5882 67.5121C71.8997 66.5227 72.3162 65.4814 72.8343 64.3881C73.3558 63.2949 73.9619 62.2085 74.6594 61.1222C75.0996 60.4303 75.6482 59.6934 76.3051 58.908C76.1595 58.7212 76.0308 58.5344 75.9225 58.3476C75.4484 57.4135 75.3367 56.2753 75.594 54.9295C75.7024 54.331 75.8852 53.7255 76.1426 53.1097C76.3999 52.4939 76.7081 51.9127 77.0738 51.373C77.2736 51.1101 77.5038 51.0651 77.7578 51.2311C77.8662 51.3245 77.9373 51.4353 77.9644 51.5667C77.9914 51.6982 77.961 51.8193 77.8695 51.93C77.5411 52.4143 77.2566 52.9333 77.0196 53.4868C76.7826 54.0369 76.6167 54.5835 76.5252 55.1267C76.4338 55.6698 76.4067 56.1715 76.444 56.6385C76.4812 57.1056 76.5997 57.5242 76.7995 57.8978C76.8164 57.9359 76.8401 57.9809 76.8672 58.0397C76.8943 58.095 76.9282 58.1435 76.962 58.1815C77.8018 57.2682 78.689 56.4171 79.6236 55.6318C79.9148 55.3896 80.2737 55.1128 80.6936 54.8049C81.1135 54.497 81.5571 54.203 82.0244 53.9227C82.4917 53.6425 82.9624 53.4107 83.4364 53.2239C83.9105 53.0371 84.3609 52.9333 84.7808 52.916C85.2006 52.8779 85.5291 52.9333 85.7695 53.0855C86.0065 53.2342 86.1792 53.383 86.291 53.5353C86.4908 53.7982 86.5822 54.1234 86.5653 54.5143C86.5483 54.9053 86.4298 55.3446 86.2097 55.8324C85.9524 56.3548 85.607 56.8738 85.1668 57.3893C84.7266 57.9048 84.2254 58.3649 83.6599 58.7766C83.1859 59.1122 82.5899 59.4443 81.8788 59.7695C81.1643 60.0982 80.3415 60.2608 79.4103 60.2608C78.6043 60.2608 77.8831 60.0843 77.2431 59.728C77.2058 59.7107 77.1686 59.6899 77.1347 59.6726C77.0975 59.6553 77.0602 59.6277 77.0264 59.5896C76.4338 60.2642 75.9123 60.9527 75.4552 61.6654ZM74.8795 77.1576C75.208 76.822 75.5094 76.476 75.7837 76.1197C75.638 76.1578 75.4958 76.1958 75.357 76.2304C75.2182 76.2685 75.0861 76.3065 74.9608 76.3411C74.8152 76.3792 74.673 76.4172 74.5341 76.4518C74.3953 76.4899 74.2836 76.528 74.1921 76.5626C73.7892 76.7321 73.4641 76.9327 73.2169 77.1645C72.9697 77.3963 72.8207 77.6074 72.7632 77.7942C72.7462 77.9049 72.7462 77.9706 72.7632 77.9914C72.8004 78.0294 72.8444 78.0709 72.8986 78.1159C72.9528 78.1609 73.0375 78.1747 73.1458 78.1574C73.6097 78.1298 74.1854 77.7942 74.8795 77.1576ZM80.2263 56.424C79.3121 57.154 78.4621 57.9636 77.6765 58.8631C78.1167 59.1433 78.6924 59.2817 79.4035 59.2817C80.0977 59.2817 80.7613 59.1571 81.3912 58.9046C82.021 58.652 82.5967 58.3337 83.1181 57.9532C83.6396 57.5692 84.0866 57.1506 84.4625 56.6939C84.8383 56.2372 85.1261 55.8013 85.3259 55.3896C85.4918 55.0713 85.5833 54.8049 85.6002 54.5904C85.6171 54.3759 85.6002 54.2306 85.546 54.1545C85.5088 54.1165 85.4444 54.0611 85.353 53.985C85.2616 53.9089 85.0889 53.8812 84.8315 53.902C84.2999 53.9193 83.6328 54.1511 82.8303 54.587C82.0278 55.0263 81.1609 55.6387 80.2263 56.424Z" fill="#767676"/>
<path d="M96.0227 68.754C96.1141 68.8474 96.1683 68.9581 96.1886 69.0896C96.2055 69.221 96.1717 69.3421 96.0802 69.4528C96.043 69.4909 96.0023 69.5359 95.9583 69.5912C95.9109 69.6466 95.8635 69.7019 95.8059 69.7607C94.9662 70.8055 94.1975 71.6774 93.5033 72.3658C92.8092 73.0578 92.1692 73.4037 91.5834 73.4037C91.1635 73.4037 90.8485 73.3242 90.6386 73.165C90.4287 73.0059 90.2763 72.8433 90.1849 72.6738C89.9851 72.3001 89.9106 71.8434 89.9648 71.3003C88.7017 72.7948 87.4861 73.5421 86.3178 73.5421C85.6778 73.5421 85.1936 73.4106 84.8651 73.1512C84.5367 72.8882 84.2996 72.6288 84.1506 72.3658C83.768 71.6566 83.7037 70.7675 83.9576 69.7054C84.066 69.183 84.2421 68.6467 84.4791 68.0932C84.7161 67.5431 85.0107 66.9861 85.3561 66.4257C86.3449 64.855 87.459 63.613 88.7017 62.6996C89.2503 62.3087 89.7819 62.0043 90.2932 61.7898C90.8045 61.5753 91.2718 61.468 91.6917 61.468C92.1658 61.468 92.5383 61.551 92.8024 61.7206C93.0665 61.8901 93.2629 62.0665 93.3916 62.2533C93.5914 62.5163 93.72 62.8242 93.7742 63.1771C93.9198 62.9522 94.0383 62.755 94.1298 62.5889C94.2212 62.4194 94.3126 62.2707 94.4041 62.1392C94.4785 61.9904 94.5598 61.859 94.6512 61.7482C94.7257 61.6375 94.8239 61.5649 94.9526 61.5372C95.0813 61.5095 95.1998 61.5337 95.3082 61.6064C95.4165 61.6825 95.491 61.7828 95.5283 61.9143C95.5655 62.0458 95.5384 62.1669 95.447 62.2776C95.447 62.2949 95.21 62.6824 94.7325 63.44C94.2584 64.1977 93.6625 65.2009 92.9514 66.4533C92.4773 67.294 92.0913 68.0378 91.8001 68.6813C91.5089 69.3248 91.2921 69.8853 91.1567 70.3627C91.0179 70.8401 90.94 71.2276 90.923 71.5252C90.9061 71.8227 90.94 72.0406 91.0314 72.1686C91.0483 72.2067 91.089 72.2586 91.1533 72.3243C91.2176 72.3901 91.3599 72.4212 91.58 72.4212C91.6714 72.4212 91.8373 72.3589 92.0744 72.2378C92.3114 72.1168 92.6602 71.8331 93.1173 71.3833C93.4458 71.065 93.7742 70.7052 94.1061 70.3039C94.4345 69.9026 94.7562 69.5151 95.0644 69.1415C95.1185 69.0861 95.1693 69.0308 95.2167 68.972C95.2608 68.9166 95.3048 68.8612 95.3386 68.8024C95.4301 68.709 95.5384 68.6537 95.6671 68.6329C95.7958 68.6225 95.9143 68.6606 96.0227 68.754ZM89.4162 70.4631C89.8733 69.9026 90.239 69.394 90.5133 68.9373C90.7876 68.4807 90.9332 68.242 90.9535 68.2212C90.9535 68.2039 90.9569 68.1935 90.9671 68.1935C90.9772 68.1935 90.9806 68.1832 90.9806 68.1659C91.2549 67.5327 91.6375 66.7924 92.1319 65.9517C92.2233 65.7822 92.3182 65.6161 92.4197 65.4466C92.5213 65.2771 92.6161 65.1214 92.7076 64.9692V64.9138C92.7245 64.8204 92.7516 64.6855 92.7888 64.509C92.8261 64.3326 92.8464 64.1458 92.8566 63.9486C92.8667 63.7514 92.8566 63.5576 92.8295 63.3604C92.8024 63.1632 92.7347 62.9902 92.6229 62.8415C92.4231 62.5785 92.1116 62.4505 91.6917 62.4505C91.4344 62.4505 91.0957 62.5301 90.6759 62.6893C90.256 62.8484 89.7988 63.1079 89.3044 63.4746C88.8101 63.8379 88.2886 64.3049 87.74 64.8757C87.1915 65.4466 86.6598 66.142 86.1485 66.9619C85.5085 67.9894 85.0886 68.9685 84.8855 69.9026C84.7195 70.7813 84.7568 71.4421 84.9938 71.8919C85.2139 72.3416 85.6507 72.5631 86.311 72.5631C87.2287 72.5631 88.2615 71.8642 89.4162 70.4631Z" fill="#767676"/>
<path d="M104.826 68.7538C104.918 68.8472 104.972 68.9579 104.992 69.0893C105.009 69.2208 104.975 69.3419 104.884 69.4526C104.847 69.4906 104.803 69.5356 104.745 69.591C104.691 69.6463 104.643 69.7017 104.61 69.7605C103.77 70.8053 103.001 71.6771 102.307 72.3655C101.613 73.0574 100.973 73.4034 100.387 73.4034C99.8757 73.4034 99.4998 73.1993 99.2628 72.7876C99.0257 72.3378 99.0257 71.6875 99.2628 70.826C99.4998 69.9854 100.011 68.8645 100.8 67.4634C100.946 67.2004 100.956 66.7784 100.827 66.1903C100.698 65.6021 100.445 64.9068 100.059 64.1042C99.5641 64.8134 98.9919 65.6091 98.3451 66.4843C97.695 67.363 96.9432 68.3421 96.0831 69.4249C95.9917 69.5356 95.8834 69.6014 95.7547 69.6221C95.626 69.6394 95.5176 69.6048 95.4262 69.5114C95.3179 69.418 95.2535 69.3073 95.2332 69.1758C95.2163 69.0444 95.2501 68.9233 95.3416 68.8126C97.1701 66.4774 98.5686 64.592 99.537 63.1528C99.3711 62.7999 99.3271 62.3744 99.3982 61.8797C99.4727 61.385 99.554 60.9802 99.6454 60.6619C99.6826 60.5685 99.7334 60.4232 99.7978 60.226C99.8621 60.0288 99.9502 59.8213 100.059 59.5964C100.167 59.3715 100.292 59.1467 100.428 58.9252C100.566 58.7004 100.726 58.5136 100.908 58.3648C101.108 58.1953 101.322 58.1088 101.538 58.0984C101.758 58.0881 101.958 58.1676 102.141 58.3371C102.524 58.6727 102.608 59.2262 102.388 59.9908C102.188 60.5893 101.813 61.3469 101.264 62.2602C101.173 62.409 101.078 62.5647 100.976 62.7238C100.875 62.883 100.77 63.0455 100.661 63.2151C101.85 65.4395 102.168 67.024 101.62 67.9788C101.145 68.8195 100.793 69.5114 100.563 70.0511C100.333 70.5942 100.184 71.0267 100.109 71.3553C100.035 71.684 100.008 71.9158 100.028 72.0542C100.045 72.196 100.065 72.2825 100.082 72.3205C100.099 72.3378 100.126 72.3621 100.163 72.3897C100.201 72.4174 100.272 72.4313 100.384 72.4313C100.475 72.4313 100.641 72.369 100.878 72.2479C101.115 72.1268 101.454 71.8431 101.894 71.3934C102.239 71.0751 102.578 70.7153 102.91 70.314C103.238 69.9127 103.56 69.5252 103.868 69.1516C103.905 69.0963 103.949 69.0409 104.007 68.9821C104.061 68.9267 104.108 68.8714 104.146 68.8126C104.237 68.7192 104.345 68.6638 104.474 68.6431C104.599 68.6223 104.718 68.6604 104.826 68.7538ZM100.384 61.8589C100.401 61.8209 100.414 61.8001 100.424 61.7897C100.434 61.7794 100.448 61.7586 100.465 61.7205C100.756 61.2362 100.976 60.8349 101.122 60.5166C101.267 60.1984 101.379 59.9389 101.45 59.7313C101.525 59.5272 101.559 59.3785 101.559 59.2816C101.559 59.1882 101.548 59.1224 101.532 59.0844C101.457 59.1397 101.352 59.2608 101.217 59.4476C101.078 59.6345 100.939 59.9147 100.79 60.2883C100.682 60.5685 100.594 60.8453 100.529 61.1151C100.472 61.3884 100.421 61.6341 100.384 61.8589Z" fill="#767676"/>
<path d="M115.932 68.754C116.024 68.8474 116.078 68.9581 116.098 69.0896C116.115 69.221 116.081 69.3421 115.99 69.4528C115.953 69.4909 115.912 69.5359 115.868 69.5912C115.824 69.6466 115.773 69.7019 115.716 69.7607C114.876 70.8055 114.107 71.6774 113.413 72.3658C112.719 73.0578 112.079 73.4037 111.493 73.4037C111.073 73.4037 110.758 73.3242 110.548 73.165C110.338 73.0059 110.186 72.8433 110.094 72.6738C109.895 72.3001 109.82 71.8434 109.874 71.3003C108.611 72.7948 107.396 73.5421 106.227 73.5421C105.587 73.5421 105.103 73.4106 104.775 73.1512C104.446 72.8882 104.209 72.6288 104.06 72.3658C103.678 71.6566 103.613 70.7675 103.867 69.7054C103.976 69.183 104.152 68.6467 104.389 68.0932C104.626 67.5431 104.92 66.9861 105.266 66.4257C106.255 64.855 107.369 63.613 108.611 62.6996C109.16 62.3087 109.692 62.0043 110.203 61.7898C110.714 61.5753 111.181 61.468 111.601 61.468C112.075 61.468 112.448 61.551 112.712 61.7206C112.976 61.8901 113.173 62.0665 113.301 62.2533C113.501 62.5163 113.63 62.8242 113.684 63.1771C113.829 62.9522 113.948 62.755 114.039 62.5889C114.131 62.4194 114.222 62.2707 114.314 62.1392C114.388 61.9904 114.469 61.859 114.561 61.7482C114.635 61.6375 114.734 61.5649 114.862 61.5372C114.991 61.5095 115.109 61.5337 115.218 61.6064C115.326 61.6825 115.401 61.7828 115.438 61.9143C115.475 62.0458 115.448 62.1669 115.357 62.2776C115.357 62.2949 115.12 62.6824 114.642 63.44C114.168 64.1977 113.572 65.2009 112.861 66.4533C112.387 67.294 112.001 68.0378 111.71 68.6813C111.418 69.3248 111.202 69.8853 111.066 70.3627C110.931 70.8401 110.85 71.2276 110.833 71.5252C110.816 71.8227 110.85 72.0406 110.941 72.1686C110.958 72.2067 110.999 72.2586 111.063 72.3243C111.127 72.3901 111.269 72.4212 111.49 72.4212C111.581 72.4212 111.747 72.3589 111.984 72.2378C112.221 72.1168 112.57 71.8331 113.027 71.3833C113.355 71.065 113.684 70.7052 114.016 70.3039C114.344 69.9026 114.666 69.5151 114.974 69.1415C115.028 69.0861 115.079 69.0308 115.126 68.972C115.17 68.9166 115.214 68.8612 115.248 68.8024C115.34 68.709 115.448 68.6537 115.577 68.6329C115.705 68.6225 115.824 68.6606 115.932 68.754ZM109.322 70.4631C109.78 69.9026 110.145 69.394 110.42 68.9373C110.694 68.4807 110.839 68.242 110.86 68.2212C110.86 68.2039 110.863 68.1935 110.873 68.1935C110.883 68.1935 110.887 68.1832 110.887 68.1659C111.161 67.5327 111.544 66.7924 112.038 65.9517C112.13 65.7822 112.224 65.6161 112.326 65.4466C112.428 65.2771 112.522 65.1214 112.614 64.9692V64.9138C112.631 64.8204 112.658 64.6855 112.695 64.509C112.732 64.3326 112.753 64.1458 112.763 63.9486C112.773 63.7514 112.763 63.5576 112.736 63.3604C112.709 63.1632 112.641 62.9902 112.529 62.8415C112.329 62.5785 112.018 62.4505 111.598 62.4505C111.341 62.4505 111.002 62.5301 110.582 62.6893C110.162 62.8484 109.705 63.1079 109.211 63.4746C108.716 63.8379 108.195 64.3049 107.646 64.8757C107.098 65.4466 106.566 66.142 106.055 66.9619C105.415 67.9894 104.995 68.9685 104.792 69.9026C104.626 70.7813 104.663 71.4421 104.9 71.8919C105.12 72.3416 105.557 72.5631 106.217 72.5631C107.138 72.5631 108.171 71.8642 109.322 70.4631Z" fill="#767676"/>
<path d="M127.285 68.7538C127.393 68.8472 127.458 68.9579 127.478 69.0894C127.495 69.2209 127.461 69.3419 127.37 69.4526C127.332 69.4907 127.302 69.5288 127.275 69.5634C127.248 69.6014 127.214 69.6395 127.18 69.6741C126.997 69.8989 126.763 70.1792 126.479 70.5147C126.195 70.8503 125.866 71.1998 125.49 71.5665C125.114 71.9297 124.708 72.2895 124.271 72.6459C123.831 73.0022 123.357 73.2997 122.846 73.5419C122.497 73.7114 122.141 73.8602 121.776 73.9917C121.41 74.1231 121.044 74.2546 120.678 74.3826C120.184 75.2786 119.646 76.0536 119.06 76.7074C118.22 77.6415 117.431 78.1536 116.7 78.247C116.662 78.247 116.625 78.2504 116.591 78.2608C116.554 78.2712 116.517 78.2746 116.483 78.2746C116.009 78.2746 115.633 78.0878 115.359 77.7142C115.139 77.472 115.074 77.126 115.166 76.6763C115.257 76.2646 115.477 75.8771 115.823 75.5139C116.171 75.1506 116.608 74.8358 117.14 74.5763C117.485 74.4276 117.861 74.2857 118.264 74.1542C118.667 74.0228 119.077 73.8844 119.497 73.7356C119.588 73.6976 119.676 73.6699 119.757 73.6526C119.839 73.6353 119.927 73.6042 120.018 73.5696C120.093 73.4208 120.16 73.2721 120.225 73.1198C120.289 72.9711 120.357 72.8223 120.431 72.6701C120.448 72.632 120.496 72.5144 120.567 72.3207C120.641 72.1235 120.75 71.8571 120.895 71.5215C119.578 72.8673 118.389 73.5385 117.33 73.5385C116.69 73.5385 116.205 73.407 115.877 73.1475C115.548 72.8846 115.311 72.6251 115.162 72.3622C114.78 71.653 114.715 70.7638 114.969 69.7017C115.078 69.1793 115.254 68.6431 115.491 68.0896C115.728 67.5395 116.022 66.9825 116.368 66.422C117.357 64.8514 118.471 63.6094 119.713 62.6961C120.262 62.3051 120.79 62.0007 121.305 61.7862C121.816 61.5717 122.284 61.4644 122.703 61.4644C123.177 61.4644 123.55 61.5475 123.814 61.717C124.078 61.8865 124.275 62.063 124.403 62.2498C124.512 62.3812 124.613 62.5577 124.705 62.7825C124.796 62.5784 124.888 62.3812 124.979 62.1944C125.07 62.0076 125.162 61.8104 125.253 61.6063C125.399 61.326 125.619 61.2499 125.91 61.3814C126.019 61.4368 126.096 61.5302 126.144 61.6616C126.188 61.7931 126.184 61.9142 126.13 62.0249C125.873 62.568 125.622 63.1043 125.375 63.6371C125.128 64.1698 124.877 64.7061 124.62 65.2492L124.593 65.3046C124.136 66.3321 123.706 67.3077 123.303 68.2314C122.9 69.1551 122.554 69.9785 122.26 70.6981C121.969 71.4177 121.735 71.9885 121.559 72.4072C121.386 72.8258 121.298 73.0472 121.298 73.0645C121.298 73.1025 121.288 73.1198 121.271 73.1198C121.471 73.0437 121.664 72.9711 121.847 72.8949C122.03 72.8188 122.212 72.7358 122.395 72.6424C122.852 72.4175 123.286 72.1477 123.699 71.8294C124.109 71.5111 124.488 71.179 124.837 70.833C125.182 70.4871 125.49 70.155 125.754 69.8401C126.019 69.5219 126.242 69.252 126.425 69.0271C126.462 68.9891 126.493 68.951 126.52 68.9164C126.547 68.8784 126.577 68.8438 126.614 68.8057C126.706 68.7123 126.814 68.6569 126.943 68.6362C127.085 68.6223 127.194 68.6604 127.285 68.7538ZM120.621 70.404C121.078 69.8816 121.461 69.4008 121.772 68.9614C122.084 68.522 122.256 68.2556 122.294 68.1622C122.514 67.6571 122.747 67.1312 122.995 66.5777C123.242 66.0276 123.492 65.4603 123.75 64.8825C123.767 64.7718 123.794 64.63 123.831 64.4639C123.868 64.2944 123.885 64.1145 123.885 63.9173C123.885 63.7201 123.872 63.5264 123.845 63.3292C123.817 63.132 123.75 62.9694 123.638 62.8379C123.438 62.575 123.127 62.4469 122.707 62.4469C122.449 62.4469 122.111 62.5265 121.691 62.6857C121.271 62.8448 120.814 63.1043 120.32 63.471C119.825 63.8343 119.304 64.3013 118.755 64.8721C118.207 65.443 117.675 66.1384 117.164 66.9583C116.524 67.9858 116.104 68.9649 115.901 69.8989C115.735 70.7777 115.772 71.4385 116.009 71.8882C116.229 72.338 116.666 72.5594 117.326 72.5594C117.783 72.5594 118.284 72.376 118.833 72.0128C119.388 71.653 119.981 71.1167 120.621 70.404ZM118.345 76.0363C118.511 75.8668 118.67 75.6799 118.826 75.4758C118.982 75.2717 119.131 75.0538 119.28 74.8323C118.623 75.0365 118.047 75.2544 117.553 75.4758C117.113 75.6799 116.771 75.9186 116.524 76.192C116.276 76.4618 116.134 76.7005 116.097 76.9081C116.08 77.0188 116.08 77.0845 116.097 77.1053C116.134 77.1607 116.188 77.2125 116.263 77.261C116.337 77.3059 116.446 77.3129 116.591 77.2748C117.103 77.216 117.688 76.8043 118.345 76.0363Z" fill="#767676"/>
<path d="M136.228 68.695C136.32 68.7884 136.37 68.8991 136.38 69.0306C136.391 69.1621 136.35 69.2728 136.259 69.3662C136.242 69.4042 136.038 69.6291 135.656 70.0373C135.273 70.449 134.758 70.9057 134.118 71.4108C132.344 72.7739 130.736 73.4554 129.293 73.4554C128.524 73.4554 127.945 73.3171 127.553 73.0368C127.16 72.7566 126.872 72.466 126.689 72.1685C126.34 71.5527 126.242 70.7812 126.388 69.8575C126.533 68.9337 126.926 67.9097 127.566 66.7888C128.46 65.1628 129.435 63.8377 130.488 62.8102C131.538 61.7827 132.53 61.1842 133.465 61.0182C134.179 60.9074 134.772 61.0458 135.246 61.4402C135.612 61.7585 135.812 62.1875 135.849 62.7306C135.866 63.2911 135.693 63.9138 135.327 64.5954C134.962 65.2769 134.43 65.9723 133.736 66.6815C132.967 67.4842 132.154 68.0723 131.294 68.4459C130.58 68.7642 129.896 68.9234 129.239 68.9234C128.911 68.9234 128.616 68.8957 128.362 68.8403C128.105 68.785 127.895 68.7192 127.732 68.6431C127.641 68.8853 127.563 69.1136 127.498 69.3281C127.434 69.5426 127.383 69.7537 127.346 69.9578C127.238 70.7051 127.299 71.2759 127.539 71.6668C127.83 72.21 128.416 72.4798 129.293 72.4798C130.041 72.4798 130.786 72.2896 131.528 71.9055C132.27 71.5215 132.937 71.0995 133.529 70.6324C134.122 70.1654 134.606 69.7364 134.982 69.342C135.358 68.951 135.544 68.7435 135.544 68.7262C135.635 68.6327 135.744 68.5808 135.873 68.5705C135.998 68.5601 136.116 68.6016 136.228 68.695ZM128.382 67.2662C128.345 67.3596 128.301 67.4426 128.247 67.5188C128.193 67.5949 128.145 67.6779 128.108 67.7713C128.254 67.8094 128.423 67.8474 128.616 67.882C128.809 67.9201 129.032 67.9374 129.286 67.9374C130.549 67.9201 131.809 67.2731 133.072 66.0034C133.658 65.4049 134.108 64.8237 134.43 64.2529C134.748 63.682 134.901 63.1942 134.884 62.7825C134.847 62.5404 134.765 62.3432 134.637 62.1944C134.379 61.9695 134.041 61.9038 133.621 61.9972C133.255 62.0526 132.862 62.2186 132.442 62.4885C132.022 62.7583 131.592 63.1112 131.152 63.5402C130.167 64.5124 129.242 65.7544 128.382 67.2662Z" fill="#767676"/>
<path d="M46.3225 93.2164C46.2615 93.2164 46.2006 93.1888 46.16 93.1334C46.0922 93.04 46.1092 92.9085 46.2006 92.8393C47.5348 91.8154 48.9265 90.6807 50.457 89.3696C50.5451 89.297 50.6737 89.3074 50.7449 89.3973C50.816 89.4872 50.8058 89.6187 50.7178 89.6913C49.1804 91.0059 47.7819 92.144 46.4444 93.1749C46.4072 93.2026 46.3631 93.2164 46.3225 93.2164Z" fill="#767676"/>
<path d="M42.7498 96.1229C42.6888 96.1229 42.6313 96.0952 42.5906 96.0433C42.5195 95.9534 42.5365 95.8219 42.6245 95.7493L43.5252 95.0159C43.6133 94.9433 43.7419 94.9571 43.8131 95.0505C43.8842 95.1404 43.8706 95.2719 43.7792 95.3446L42.8785 96.0779C42.8378 96.1091 42.7938 96.1229 42.7498 96.1229Z" fill="#767676"/>
<path d="M42.6379 90.1793C42.5431 90.1793 42.4585 90.1101 42.4382 90.0132C42.4144 89.899 42.4856 89.7883 42.5973 89.7676C43.7825 89.5185 45.0422 89.2106 46.4508 88.83C46.5592 88.7989 46.6709 88.868 46.7014 88.9788C46.7319 89.0895 46.6642 89.2037 46.5558 89.2348C45.1437 89.6154 43.8739 89.9267 42.682 90.1758C42.665 90.1793 42.6515 90.1793 42.6379 90.1793Z" fill="#767676"/>
<path d="M39.4035 90.9647C39.3121 90.9647 39.2274 90.899 39.2037 90.8056C39.1766 90.6949 39.2443 90.5808 39.3561 90.5531L40.1721 90.3559C40.2805 90.3317 40.3923 90.3975 40.4193 90.5116C40.4464 90.6223 40.3787 90.7364 40.267 90.7641L39.4509 90.9612C39.434 90.9647 39.417 90.9647 39.4035 90.9647Z" fill="#767676"/>
<path d="M108.322 90.9057C108.309 90.9057 108.295 90.9057 108.282 90.9023C106.853 90.6185 105.583 90.3314 104.398 90.0269C104.289 89.9992 104.222 89.885 104.249 89.7743C104.276 89.6636 104.387 89.5944 104.496 89.6221C105.674 89.9266 106.941 90.2103 108.359 90.494C108.471 90.5147 108.542 90.6255 108.522 90.7397C108.505 90.8365 108.417 90.9057 108.322 90.9057Z" fill="#767676"/>
<path d="M102.021 89.4839C102.008 89.4839 101.991 89.4839 101.977 89.4805L101.161 89.2971C101.049 89.2728 100.982 89.1621 101.005 89.0479C101.029 88.9371 101.137 88.8645 101.249 88.8887L102.065 89.0721C102.177 89.0963 102.245 89.2071 102.221 89.3213C102.201 89.4182 102.116 89.4839 102.021 89.4839Z" fill="#767676"/>
<path d="M61.5928 91.8259C61.559 91.8259 61.5217 91.8155 61.4913 91.7982C61.3931 91.7394 61.3592 91.6114 61.4168 91.511L62.1922 90.1479C62.2497 90.0476 62.375 90.013 62.4732 90.0718C62.5714 90.1306 62.6053 90.2586 62.5477 90.359L61.7723 91.7221C61.7317 91.7878 61.6606 91.8259 61.5928 91.8259Z" fill="#767676"/>
<path d="M52.5803 105.709C52.5431 105.709 52.5024 105.699 52.4686 105.675C52.3738 105.612 52.3501 105.481 52.411 105.384L60.1992 93.376C60.2635 93.2791 60.3888 93.2549 60.4836 93.3171C60.5784 93.3794 60.6021 93.5109 60.5412 93.6078L52.753 105.616C52.7124 105.678 52.648 105.709 52.5803 105.709Z" fill="#767676"/>
<path d="M64.4814 110.982C64.4678 110.982 64.4509 110.982 64.4373 110.978C64.3256 110.954 64.2579 110.844 64.2816 110.729C65.2297 106.353 66.3844 101.966 67.5018 97.7249C68.2062 95.0541 68.9308 92.2934 69.5979 89.5638C69.625 89.4531 69.7367 89.3839 69.8451 89.4116C69.9534 89.4393 70.0212 89.5535 69.9941 89.6642C69.327 92.3972 68.599 95.1579 67.8946 97.8322C66.7772 102.07 65.6259 106.45 64.6778 110.816C64.6608 110.916 64.5762 110.982 64.4814 110.982Z" fill="#767676"/>
<path d="M47.6395 101.845C47.5921 101.845 47.5447 101.828 47.5075 101.793C47.4228 101.717 47.4127 101.586 47.4838 101.499L54.246 93.4318C54.3205 93.3453 54.4492 93.3349 54.5338 93.4075C54.6185 93.4836 54.6286 93.6151 54.5575 93.7016L47.7953 101.769C47.7547 101.821 47.6971 101.845 47.6395 101.845Z" fill="#767676"/>
<path d="M58.6437 108.225C58.62 108.225 58.5963 108.221 58.5726 108.211C58.4676 108.169 58.4135 108.052 58.4507 107.941C59.9508 103.807 61.7387 99.7175 63.4657 95.7632C64.0176 94.5039 64.5662 93.2412 65.1113 91.9784C65.1554 91.8746 65.2773 91.8262 65.3822 91.8712C65.4872 91.9162 65.5312 92.0407 65.4872 92.1479C64.9454 93.4141 64.3935 94.6735 63.8415 95.9362C62.118 99.8836 60.3334 103.969 58.8367 108.09C58.8063 108.173 58.7284 108.225 58.6437 108.225Z" fill="#767676"/>
<path d="M55.8502 91.7326C55.8027 91.7326 55.7587 91.7153 55.7181 91.6842C55.63 91.6115 55.6199 91.4801 55.691 91.3901L57.3435 89.3766C57.4146 89.2866 57.5466 89.2762 57.6313 89.3489C57.7193 89.4215 57.7295 89.553 57.6584 89.643L56.0059 91.6565C55.9653 91.7084 55.9077 91.7326 55.8502 91.7326Z" fill="#767676"/>
<path d="M58.6437 108.225C58.62 108.225 58.5963 108.221 58.5726 108.211C58.4676 108.169 58.4135 108.052 58.4507 107.941C59.9508 103.807 61.7387 99.7175 63.4657 95.7632C64.0176 94.5039 64.5662 93.2412 65.1113 91.9784C65.1554 91.8746 65.2773 91.8262 65.3822 91.8712C65.4872 91.9162 65.5312 92.0407 65.4872 92.1479C64.9454 93.4141 64.3935 94.6735 63.8415 95.9362C62.118 99.8836 60.3334 103.969 58.8367 108.09C58.8063 108.173 58.7284 108.225 58.6437 108.225Z" fill="#767676"/>
<path d="M79.2529 112.632C79.1513 112.632 79.0633 112.553 79.0498 112.449C78.5757 108.36 78.2371 104.187 77.9086 100.153C77.6276 96.7008 77.3364 93.1271 76.9639 89.626C76.9503 89.5118 77.0316 89.408 77.1433 89.3976C77.2551 89.3838 77.3567 89.4668 77.3702 89.581C77.7427 93.089 78.0339 96.6627 78.315 100.119C78.6434 104.149 78.982 108.318 79.4561 112.4C79.4696 112.514 79.3884 112.618 79.2766 112.632C79.2699 112.632 79.2631 112.632 79.2529 112.632Z" fill="#767676"/>
<path d="M86.5032 111.366C86.4118 111.366 86.3271 111.304 86.3034 111.207C85.2131 106.706 83.8857 102.184 82.6023 97.8148C82.0232 95.8428 81.4239 93.8051 80.855 91.7917C80.8245 91.681 80.8855 91.5633 80.9938 91.5322C81.1022 91.501 81.2173 91.5633 81.2478 91.674C81.8167 93.684 82.416 95.7217 82.9917 97.6902C84.2751 102.067 85.6059 106.588 86.6962 111.103C86.7233 111.214 86.6556 111.328 86.5472 111.356C86.5371 111.362 86.5201 111.366 86.5032 111.366Z" fill="#767676"/>
<path d="M94.8841 107.975C94.8096 107.975 94.7385 107.934 94.7012 107.861C93.5161 105.495 92.3309 103.08 91.1864 100.745C89.5238 97.3544 87.807 93.8498 86.0564 90.4386C86.0056 90.3349 86.0428 90.2103 86.141 90.1584C86.2426 90.1065 86.3645 90.1446 86.4153 90.2449C88.1693 93.663 89.8861 97.1675 91.5487 100.558C92.6933 102.893 93.8784 105.308 95.0602 107.671C95.111 107.775 95.0703 107.899 94.9721 107.951C94.9484 107.968 94.918 107.975 94.8841 107.975Z" fill="#767676"/>
<path d="M99.7148 92.6531C99.664 92.6531 99.6132 92.6358 99.576 92.5943L96.5724 89.6883C96.4911 89.6087 96.4878 89.4772 96.5656 89.3942C96.6435 89.3112 96.7722 89.3077 96.8535 89.3873L99.857 92.2933C99.9383 92.3729 99.9417 92.5043 99.8638 92.5873C99.8232 92.6323 99.769 92.6531 99.7148 92.6531Z" fill="#767676"/>
<path d="M104.763 97.9979C104.709 97.9979 104.655 97.9771 104.618 97.9356L103.263 96.5032C103.185 96.4202 103.185 96.2887 103.266 96.2091C103.348 96.1295 103.476 96.133 103.554 96.2125L104.909 97.645C104.987 97.728 104.987 97.8595 104.905 97.9391C104.865 97.9806 104.814 97.9979 104.763 97.9979Z" fill="#767676"/>
<path d="M71.704 106.577C71.6972 106.577 71.6938 106.577 71.6871 106.577C71.5753 106.567 71.4907 106.467 71.5008 106.353C71.8699 101.63 72.1984 97.4995 72.5099 93.7251C72.52 93.6109 72.6216 93.5313 72.73 93.5348C72.8417 93.5452 72.9264 93.6455 72.9162 93.7597C72.6081 97.5341 72.2762 101.665 71.9072 106.387C71.9004 106.494 71.8123 106.577 71.704 106.577Z" fill="#767676"/>
<path d="M71.2245 112.677C71.2177 112.677 71.2143 112.677 71.2076 112.677C71.0958 112.667 71.0112 112.566 71.0213 112.452L71.4514 107.263C71.4615 107.149 71.5631 107.066 71.6715 107.073C71.7832 107.083 71.8679 107.183 71.8577 107.298L71.4277 112.487C71.4209 112.594 71.3295 112.677 71.2245 112.677Z" fill="#767676"/>
<path d="M100.264 103.744C100.2 103.744 100.139 103.713 100.098 103.658C96.7052 98.8591 93.3427 94.1472 90.1021 89.6463C90.0344 89.5529 90.0547 89.4214 90.1461 89.3557C90.2376 89.2865 90.3662 89.3072 90.4306 89.4006C93.6678 93.9016 97.0302 98.617 100.427 103.415C100.494 103.509 100.474 103.64 100.379 103.706C100.349 103.73 100.305 103.744 100.264 103.744Z" fill="#767676"/>
<path d="M94.5443 55.4624C94.4867 55.4624 94.4291 55.4381 94.3885 55.3897C94.314 55.3032 94.3275 55.1683 94.4122 55.0956L107.486 43.8001C107.574 43.724 107.703 43.7378 107.774 43.8243C107.849 43.9108 107.835 44.0457 107.75 44.1183L94.6763 55.4139C94.6391 55.4451 94.5917 55.4624 94.5443 55.4624Z" fill="#767676"/>
<path d="M87.2745 50.6361C87.2406 50.6361 87.2034 50.6257 87.1729 50.6084C87.0747 50.5496 87.0408 50.4216 87.0984 50.3213L87.8806 48.9513C87.9382 48.851 88.0635 48.8198 88.1617 48.8752C88.2599 48.934 88.2938 49.062 88.2362 49.1623L87.454 50.5323C87.4133 50.598 87.3422 50.6361 87.2745 50.6361Z" fill="#767676"/>
<path d="M89.2795 47.3877C89.2423 47.3877 89.2017 47.3773 89.1678 47.3531C89.073 47.2909 89.0493 47.1594 89.1102 47.0625L96.8985 35.0541C96.9628 34.9572 97.0881 34.933 97.1829 34.9952C97.2777 35.0575 97.3014 35.189 97.2405 35.2859L89.4522 47.2943C89.4082 47.3531 89.3439 47.3877 89.2795 47.3877Z" fill="#767676"/>
<path d="M80.7893 47.9481C80.7723 47.9481 80.7554 47.9446 80.7385 47.9411C80.6301 47.9135 80.5624 47.7993 80.5895 47.6886C80.9586 46.1975 81.331 44.71 81.7035 43.2224C82.8007 38.846 83.9317 34.3244 84.9611 29.8547C84.9882 29.744 85.0965 29.6713 85.2083 29.699C85.3166 29.7267 85.3877 29.8374 85.3606 29.9516C84.3312 34.4247 83.1969 38.9533 82.0997 43.3296C81.7272 44.8172 81.3547 46.3082 80.9857 47.7959C80.9619 47.8858 80.8807 47.9481 80.7893 47.9481Z" fill="#767676"/>
<path d="M99.2523 42.534C99.2049 42.534 99.1575 42.5167 99.1203 42.4821C99.0356 42.406 99.0255 42.2746 99.0966 42.1881L101.853 38.8981C101.927 38.8116 102.056 38.8012 102.141 38.8738C102.225 38.9499 102.236 39.0814 102.164 39.1679L99.4081 42.4579C99.3675 42.5098 99.3099 42.534 99.2523 42.534Z" fill="#767676"/>
<path d="M89.0918 37.545C89.0681 37.545 89.041 37.5415 89.0173 37.5312C88.9123 37.4896 88.8615 37.3685 88.9022 37.2613C89.1663 36.5798 89.4575 35.9052 89.7352 35.2513C90.1246 34.3415 90.4937 33.4835 90.8086 32.5875C90.8458 32.4803 90.9643 32.4215 91.0693 32.463C91.1743 32.501 91.2318 32.6221 91.1912 32.7294C90.8695 33.6392 90.4835 34.5456 90.1076 35.4208C89.83 36.0678 89.5422 36.7389 89.278 37.417C89.2476 37.4966 89.1731 37.545 89.0918 37.545Z" fill="#767676"/>
<path d="M98.9126 55.7182C98.8381 55.7182 98.767 55.6767 98.7331 55.6075C98.6823 55.5038 98.7196 55.3792 98.8178 55.3273L107.812 50.5082C107.913 50.4563 108.035 50.4943 108.086 50.5946C108.137 50.6984 108.099 50.823 108.001 50.8749L99.0074 55.694C98.9769 55.7113 98.9465 55.7182 98.9126 55.7182Z" fill="#767676"/>
<path d="M108.455 50.5913C108.381 50.5913 108.309 50.5498 108.276 50.4806C108.221 50.3768 108.262 50.2523 108.36 50.2004L110.585 49.0102C110.687 48.9583 110.808 48.9964 110.859 49.0967C110.913 49.2005 110.873 49.3251 110.775 49.377L108.55 50.5706C108.523 50.5844 108.489 50.5913 108.455 50.5913Z" fill="#767676"/>
<path d="M103.515 57.2161C103.43 57.2161 103.349 57.1608 103.322 57.0743C103.285 56.9636 103.342 56.846 103.451 56.8079L110.975 54.1962C111.08 54.1616 111.198 54.2169 111.235 54.3276C111.273 54.4383 111.215 54.5559 111.107 54.594L103.583 57.2058C103.559 57.2127 103.539 57.2161 103.515 57.2161Z" fill="#767676"/>
<path d="M88.7203 55.5488C88.6729 55.5488 88.6288 55.5315 88.5882 55.5004C88.5002 55.4277 88.49 55.2962 88.5611 55.2063L96.346 45.7099C96.4205 45.62 96.5492 45.6096 96.6338 45.6822C96.7219 45.7549 96.732 45.8863 96.6609 45.9763L88.876 55.4727C88.8388 55.5211 88.7812 55.5488 88.7203 55.5488Z" fill="#767676"/>
<path d="M84.5513 48.8162C84.5242 48.8162 84.4972 48.8093 84.4701 48.7989C84.3651 48.7539 84.3211 48.6294 84.3651 48.5221C85.767 45.2564 87.0131 42.302 88.0967 39.2334C88.1339 39.1261 88.2524 39.0673 88.3574 39.1088C88.4624 39.1469 88.5199 39.268 88.4793 39.3752C87.3957 42.4542 86.1428 45.4155 84.7376 48.6882C84.7037 48.7712 84.6292 48.8162 84.5513 48.8162Z" fill="#767676"/>
<path d="M72.4571 50.1995C72.3555 50.1995 72.2674 50.1199 72.2539 50.0127C71.79 45.7539 71.3972 41.4121 71.0213 37.2157C70.7572 34.2819 70.483 31.2479 70.1884 28.2657C70.1782 28.1515 70.2595 28.0478 70.3712 28.0374C70.4829 28.027 70.5845 28.11 70.5947 28.2242C70.8927 31.2064 71.1636 34.2439 71.4277 37.1776C71.8035 41.3706 72.1963 45.709 72.6602 49.9643C72.6738 50.0784 72.5925 50.1822 72.4808 50.196C72.474 50.1995 72.4672 50.1995 72.4571 50.1995Z" fill="#767676"/>
<path d="M68.9917 51.1414C68.9036 51.1414 68.819 51.0791 68.7953 50.9892L65.3718 38.4584C65.3414 38.3477 65.4057 38.2336 65.514 38.2024C65.6224 38.1713 65.7342 38.237 65.7646 38.3477L69.1881 50.8785C69.2185 50.9892 69.1542 51.1033 69.0458 51.1345C69.0255 51.1414 69.0086 51.1414 68.9917 51.1414Z" fill="#767676"/>
<path d="M64.6421 35.2062C64.554 35.2062 64.4694 35.1439 64.4457 35.054L62.949 29.5706C62.9185 29.4599 62.9828 29.3458 63.0912 29.3146C63.1995 29.2835 63.3113 29.3492 63.3418 29.4599L64.8384 34.9433C64.8689 35.054 64.8046 35.1682 64.6962 35.1993C64.6759 35.2028 64.659 35.2062 64.6421 35.2062Z" fill="#767676"/>
<path d="M65.0923 53.3106C65.0178 53.3106 64.9467 53.2691 64.9094 53.1964C61.293 45.9209 57.9136 39.3165 54.5816 33.0062C54.5274 32.9059 54.5646 32.7779 54.6628 32.7225C54.761 32.6671 54.8863 32.7052 54.9405 32.8055C58.2725 39.1193 61.6519 45.7271 65.2717 53.0062C65.3225 53.1099 65.2819 53.2345 65.1837 53.2864C65.1532 53.3037 65.1228 53.3106 65.0923 53.3106Z" fill="#767676"/>
<path d="M57.2606 55.5244C57.2098 55.5244 57.159 55.5071 57.1218 55.4656L49.7941 48.3805C49.7128 48.301 49.7094 48.1695 49.7873 48.0865C49.8652 48.0034 49.9939 48 50.0751 48.0795L57.4028 55.1646C57.4841 55.2442 57.4875 55.3757 57.4096 55.4587C57.369 55.5002 57.3148 55.5244 57.2606 55.5244Z" fill="#767676"/>
<path d="M47.6049 46.0695C47.5507 46.0695 47.4965 46.0487 47.4593 46.0072L43.1521 41.4439C43.0742 41.3609 43.0776 41.2294 43.1588 41.1499C43.2401 41.0703 43.3688 41.0738 43.4467 41.1568L47.7539 45.72C47.8318 45.8031 47.8284 45.9345 47.7471 46.0141C47.7065 46.0487 47.6557 46.0695 47.6049 46.0695Z" fill="#767676"/>
<path d="M43.647 55.272C43.6165 55.272 43.5861 55.2651 43.559 55.2512L36.282 51.6879C36.1804 51.6395 36.1364 51.5149 36.1872 51.4077C36.2346 51.3039 36.3599 51.2589 36.4615 51.3108L43.7384 54.8742C43.84 54.9226 43.884 55.0471 43.8333 55.1544C43.7994 55.227 43.7249 55.272 43.647 55.272Z" fill="#767676"/>
<path d="M76.7631 48.5294C76.7597 48.5294 76.753 48.5294 76.7496 48.5294C76.6378 48.5225 76.5532 48.4221 76.5599 48.308C76.5938 47.7787 76.6277 47.2528 76.6581 46.7235C76.841 43.7587 77.0306 40.6969 77.3862 37.694C77.3997 37.5799 77.5013 37.5003 77.613 37.5107C77.7248 37.5245 77.806 37.6283 77.7925 37.7425C77.437 40.7315 77.2473 43.7898 77.0645 46.7477C77.0306 47.277 77.0001 47.8063 76.9663 48.3322C76.9595 48.4429 76.8681 48.5294 76.7631 48.5294Z" fill="#767676"/>
<path d="M77.9926 33.6048C77.9858 33.6048 77.9824 33.6048 77.9756 33.6048C77.8639 33.5944 77.7792 33.4941 77.7894 33.3799L78.2195 28.1904C78.2296 28.0762 78.3346 27.9966 78.4396 28.0001C78.5513 28.0105 78.6359 28.1108 78.6258 28.225L78.1957 33.4145C78.1856 33.5217 78.0975 33.6048 77.9926 33.6048Z" fill="#767676"/>
<path d="M50.5479 38.9289C50.4869 38.9289 50.426 38.9012 50.3853 38.8458C49.83 38.0986 49.2713 37.3168 48.7295 36.5591L48.4112 36.1163C48.3435 36.0229 48.3638 35.8915 48.4552 35.8257C48.5466 35.76 48.6753 35.7773 48.7396 35.8707L49.058 36.3135C49.5997 37.0677 50.1551 37.8495 50.7104 38.5933C50.7781 38.6867 50.7612 38.8147 50.6698 38.8874C50.6359 38.915 50.5919 38.9289 50.5479 38.9289Z" fill="#767676"/>
<path d="M62.0128 54.8257C61.9518 54.8257 61.8909 54.7981 61.8502 54.7427C59.5679 51.643 57.2924 48.4602 55.0914 45.3812L53.5337 43.2017C53.466 43.1083 53.4863 42.9768 53.5778 42.9111C53.6692 42.8419 53.7979 42.8626 53.8622 42.9561L55.4198 45.1356C57.6209 48.2145 59.893 51.3939 62.1753 54.4936C62.243 54.587 62.2261 54.7185 62.1347 54.7877C62.0974 54.8119 62.0534 54.8257 62.0128 54.8257Z" fill="#767676"/>
<path d="M50.6696 55.4763C50.6289 55.4763 50.5883 55.466 50.5544 55.4383L44.8859 51.4421C44.7945 51.3764 44.7708 51.2449 44.8351 51.1515C44.8995 51.0581 45.0282 51.0339 45.1196 51.0996L50.7881 55.0957C50.8795 55.1615 50.9032 55.293 50.8389 55.3864C50.7982 55.4452 50.7339 55.4763 50.6696 55.4763Z" fill="#767676"/>
<path d="M43.2979 50.2589C43.2573 50.2589 43.2167 50.2486 43.1828 50.2209L39.8 47.8339C39.7086 47.7682 39.6849 47.6368 39.7492 47.5433C39.8135 47.4499 39.9422 47.4257 40.0337 47.4914L43.4165 49.8784C43.5079 49.9442 43.5316 50.0756 43.4673 50.169C43.4266 50.2278 43.3623 50.2589 43.2979 50.2589Z" fill="#767676"/>
<path d="M38.7529 82.8882V83.7601C38.7529 84.4105 38.2382 84.9433 37.6016 84.9433H36.2268C36.1252 84.9433 36.0474 84.8603 36.0474 84.76V79.9577C36.0474 79.8539 36.1252 79.7743 36.2268 79.7743H37.4865C38.1231 79.7743 38.6378 80.3071 38.6378 80.9576V81.4385C38.6378 81.6807 38.5735 81.9021 38.4414 82.0889C38.6378 82.2965 38.7529 82.5802 38.7529 82.8882ZM36.9176 81.7153H37.4899C37.6423 81.7153 37.7709 81.5838 37.7709 81.4281V80.9195C37.7709 80.7569 37.6423 80.6254 37.4899 80.6254H36.9176V81.7153ZM37.8861 82.8467C37.8861 82.684 37.7574 82.5526 37.605 82.5526H36.9176V84.0888H37.605C37.7574 84.0888 37.8861 83.9573 37.8861 83.7843V82.8467Z" fill="#767676"/>
<path d="M40.4239 80.6134V81.7136H41.0605C41.1621 81.7136 41.24 81.7932 41.24 81.897V82.3537C41.24 82.4575 41.1621 82.537 41.0605 82.537H40.4239V84.0973H41.4296C41.5312 84.0973 41.6091 84.1769 41.6091 84.2807V84.7547C41.6091 84.8585 41.5312 84.938 41.4296 84.938H39.7298C39.6282 84.938 39.5503 84.855 39.5503 84.7547V79.9527C39.5503 79.8489 39.6282 79.7693 39.7298 79.7693H41.4296C41.5312 79.7693 41.6091 79.8523 41.6091 79.9527V80.4266C41.6091 80.5304 41.5312 80.61 41.4296 80.61H40.4239V80.6134Z" fill="#767676"/>
<path d="M44.1122 81.077V80.9213C44.1122 80.7587 43.9835 80.6342 43.8243 80.6342H43.4925C43.3333 80.6342 43.2047 80.7587 43.2047 80.9213V81.3711C43.2047 81.5337 43.3333 81.6582 43.4925 81.6651H43.8243C44.4677 81.6651 44.9824 82.191 44.9824 82.8483V83.7581C44.9824 84.4085 44.4609 84.9413 43.8243 84.9413H43.4925C42.8559 84.9413 42.3344 84.4085 42.3344 83.7581V83.1527C42.3344 83.0489 42.4123 82.9694 42.5139 82.9694H43.0184C43.12 82.9694 43.1979 83.0524 43.1979 83.1527V83.7962C43.1979 83.9588 43.3266 84.0902 43.4857 84.0902H43.8176C43.9767 84.0902 44.1054 83.9588 44.1054 83.7962V82.8344C44.1054 82.6718 43.9767 82.5473 43.8176 82.5473H43.4857C42.8491 82.5404 42.3276 82.0214 42.3276 81.3711V80.949C42.3276 80.2986 42.8491 79.7659 43.4857 79.7659H43.8176C44.4609 79.7659 44.9756 80.2986 44.9756 80.949V81.0736C44.9756 81.1773 44.8944 81.2569 44.7962 81.2569H44.2916C44.19 81.2638 44.1122 81.1808 44.1122 81.077Z" fill="#767676"/>
<path d="M48.0613 79.9558V80.4436C48.0613 80.5474 47.9733 80.627 47.8819 80.627H47.2588V84.7577C47.2588 84.8615 47.1809 84.9411 47.0793 84.9411H46.5714C46.4766 84.9411 46.3919 84.8581 46.3919 84.7577V80.627H45.7757C45.6741 80.627 45.5962 80.5439 45.5962 80.4436V79.9558C45.5962 79.852 45.6741 79.7724 45.7757 79.7724H47.8785C47.9733 79.769 48.0613 79.852 48.0613 79.9558Z" fill="#767676"/>
<path d="M52.8043 84.0904H53.0921C53.1801 84.0904 53.2648 84.1734 53.2648 84.2737V84.7546C53.2648 84.8584 53.1767 84.9379 53.0751 84.9379H51.6428C51.0773 84.9379 50.6235 84.4709 50.6235 83.9035V80.8072C50.6235 80.2294 51.0807 79.7659 51.6428 79.7659H52.2489C52.8144 79.7659 53.2682 80.2329 53.2682 80.8072V83.3569C53.2749 83.6856 53.0785 83.9658 52.8043 84.0904ZM52.4047 80.8107C52.4047 80.7069 52.3166 80.6204 52.215 80.6204H51.68C51.5784 80.6204 51.4938 80.7103 51.4938 80.8107V83.907C51.4938 84.0039 51.5818 84.0904 51.68 84.0904H52.4047V80.8107Z" fill="#767676"/>
<path d="M56.1032 79.7693H56.6078C56.7094 79.7693 56.7872 79.8592 56.7872 79.963V83.9969C56.7872 84.5124 56.3673 84.9414 55.8628 84.9414H55.067C54.5591 84.9414 54.1426 84.5124 54.1426 83.9969V79.963C54.1426 79.8592 54.2205 79.7693 54.322 79.7693H54.83C54.9316 79.7693 55.0095 79.8592 55.0095 79.963V83.907C55.0095 84.0107 55.0975 84.0903 55.1991 84.0903H55.7341C55.8357 84.0903 55.9237 84.0107 55.9237 83.907V79.963C55.9204 79.8592 56.0016 79.7693 56.1032 79.7693Z" fill="#767676"/>
<path d="M60.2178 84.1076V84.758C60.2178 84.8618 60.1365 84.9414 60.0383 84.9414H59.5236C59.4288 84.9414 59.3509 84.8583 59.3509 84.758V84.0869H58.3825V84.758C58.3825 84.8618 58.3046 84.9414 58.203 84.9414H57.6951C57.5935 84.9414 57.5156 84.8583 57.5156 84.758V84.1076C57.5156 84.0765 57.5156 84.0557 57.5224 84.0107L58.1455 79.9319C58.159 79.835 58.2403 79.7693 58.3351 79.7693H59.4187C59.5135 79.7693 59.5846 79.8523 59.5981 79.9319L60.211 84.0107C60.2178 84.0557 60.2178 84.0765 60.2178 84.1076ZM59.2494 83.2496L58.8667 80.6411L58.4841 83.2496H59.2494Z" fill="#767676"/>
<path d="M61.8088 79.9558V84.1004H62.8212C62.9228 84.1004 63.0007 84.18 63.0007 84.2838V84.7577C63.0007 84.8615 62.9228 84.9411 62.8212 84.9411H61.1214C61.0198 84.9411 60.9419 84.8581 60.9419 84.7577V79.9558C60.9419 79.852 61.0198 79.7724 61.1214 79.7724H61.6293C61.7309 79.769 61.8088 79.852 61.8088 79.9558Z" fill="#767676"/>
<path d="M64.3764 84.9414H63.8719C63.7703 84.9414 63.6924 84.8583 63.6924 84.758V79.963C63.6924 79.8592 63.7737 79.7693 63.8719 79.7693H64.3764C64.478 79.7693 64.5559 79.8592 64.5559 79.963V84.758C64.5592 84.8618 64.478 84.9414 64.3764 84.9414Z" fill="#767676"/>
<path d="M67.7103 79.9558V80.4436C67.7103 80.5474 67.6222 80.627 67.5308 80.627H66.9077V84.7577C66.9077 84.8615 66.8298 84.9411 66.7283 84.9411H66.2203C66.1255 84.9411 66.0409 84.8581 66.0409 84.7577V80.627H65.4246C65.323 80.627 65.2451 80.5439 65.2451 80.4436V79.9558C65.2451 79.852 65.323 79.7724 65.4246 79.7724H67.5274C67.6222 79.769 67.7103 79.852 67.7103 79.9558Z" fill="#767676"/>
<path d="M70.3424 79.7693H70.8469C70.9485 79.7693 71.0264 79.8523 71.0264 79.9527V80.6827C71.0264 80.7622 71.0129 80.8453 70.9756 80.9179L70.0579 82.845V84.7514C70.0579 84.8552 69.9767 84.9347 69.8785 84.9347H69.3739C69.2723 84.9347 69.1945 84.8517 69.1945 84.7514V82.845L68.27 80.9179C68.2396 80.8453 68.2192 80.7622 68.2192 80.6827V79.9527C68.2192 79.8489 68.2971 79.7693 68.3987 79.7693H68.9066C69.0082 79.7693 69.0861 79.8523 69.0861 79.9527V80.5131C69.0861 80.572 69.0997 80.6308 69.1301 80.6827L69.6279 81.731L70.1257 80.6827C70.146 80.6308 70.1629 80.572 70.1629 80.5131V79.9527C70.1629 79.8523 70.2408 79.7693 70.3424 79.7693Z" fill="#767676"/>
<path d="M75.5368 82.3571C75.5368 82.9245 75.0898 83.3847 74.5311 83.3847C73.9825 83.3847 73.5254 82.928 73.5254 82.3571C73.5254 81.7966 73.9825 81.3295 74.5311 81.3295C75.0864 81.3295 75.5368 81.7931 75.5368 82.3571Z" fill="#767676"/>
<path d="M80.9175 82.8861V83.7579C80.9175 84.4083 80.4028 84.9411 79.7662 84.9411H78.3914C78.2898 84.9411 78.2119 84.858 78.2119 84.7577V79.9559C78.2119 79.8522 78.2932 79.7726 78.3914 79.7726H79.651C80.2876 79.7726 80.8023 80.3053 80.8023 80.9557V81.4366C80.8023 81.6788 80.738 81.9002 80.6059 82.087C80.799 82.2946 80.9175 82.5782 80.9175 82.8861ZM79.0788 81.7134H79.651C79.8034 81.7134 79.9321 81.5819 79.9321 81.4262V80.9177C79.9321 80.7551 79.8034 80.6236 79.651 80.6236H79.0788V81.7134ZM80.0472 82.8446C80.0472 82.682 79.9186 82.5506 79.7662 82.5506H79.0788V84.0866H79.7662C79.9186 84.0866 80.0472 83.9551 80.0472 83.7821V82.8446Z" fill="#767676"/>
<path d="M82.587 80.6134V81.7136H83.2236C83.3252 81.7136 83.4031 81.7932 83.4031 81.897V82.3537C83.4031 82.4575 83.3252 82.537 83.2236 82.537H82.587V84.0973H83.5927C83.6943 84.0973 83.7722 84.1769 83.7722 84.2807V84.7547C83.7722 84.8585 83.6943 84.938 83.5927 84.938H81.8928C81.7913 84.938 81.7134 84.855 81.7134 84.7547V79.9527C81.7134 79.8489 81.7913 79.7693 81.8928 79.7693H83.5927C83.6943 79.7693 83.7722 79.8523 83.7722 79.9527V80.4266C83.7722 80.5304 83.6943 80.61 83.5927 80.61H82.587V80.6134Z" fill="#767676"/>
<path d="M86.2748 81.077V80.9213C86.2748 80.7587 86.1461 80.6342 85.9869 80.6342H85.6551C85.4959 80.6342 85.3673 80.7587 85.3673 80.9213V81.3711C85.3673 81.5337 85.4959 81.6582 85.6551 81.6651H85.9869C86.6303 81.6651 87.145 82.191 87.145 82.8483V83.7581C87.145 84.4085 86.6235 84.9413 85.9869 84.9413H85.6551C85.0185 84.9413 84.497 84.4085 84.497 83.7581V83.1527C84.497 83.0489 84.5749 82.9694 84.6765 82.9694H85.181C85.2826 82.9694 85.3605 83.0524 85.3605 83.1527V83.7962C85.3605 83.9588 85.4892 84.0902 85.6483 84.0902H85.9802C86.1393 84.0902 86.268 83.9588 86.268 83.7962V82.8344C86.268 82.6718 86.1393 82.5473 85.9802 82.5473H85.6483C85.0117 82.5404 84.4902 82.0214 84.4902 81.3711V80.949C84.4902 80.2986 85.0117 79.7659 85.6483 79.7659H85.9802C86.6235 79.7659 87.1382 80.2986 87.1382 80.949V81.0736C87.1382 81.1773 87.057 81.2569 86.9588 81.2569H86.4542C86.356 81.2638 86.2748 81.1808 86.2748 81.077Z" fill="#767676"/>
<path d="M90.222 79.9558V80.4436C90.222 80.5474 90.134 80.627 90.0426 80.627H89.4195V84.7577C89.4195 84.8615 89.3416 84.9411 89.24 84.9411H88.7321C88.6373 84.9411 88.5526 84.8581 88.5526 84.7577V80.627H87.9363C87.8347 80.627 87.7568 80.5439 87.7568 80.4436V79.9558C87.7568 79.852 87.8347 79.7724 87.9363 79.7724H90.0392C90.1374 79.769 90.222 79.852 90.222 79.9558Z" fill="#767676"/>
<path d="M95.3655 80.9523V81.4262C95.3655 82.0766 94.8441 82.6094 94.2142 82.6094H93.6589V84.7577C93.6589 84.8615 93.5776 84.9411 93.4794 84.9411H92.9749C92.8733 84.9411 92.7954 84.858 92.7954 84.7577V79.956C92.7954 79.8522 92.8767 79.7726 92.9749 79.7726H94.2176C94.8441 79.7691 95.3655 80.3019 95.3655 80.9523ZM94.4987 80.9142C94.4987 80.7516 94.3768 80.6202 94.2176 80.6202H93.6623V81.7134H94.2176C94.3768 81.7134 94.4987 81.5819 94.4987 81.4262V80.9142Z" fill="#767676"/>
<path d="M97.945 82.5263L98.5951 83.7683C98.6324 83.8409 98.6459 83.9309 98.6459 84.0105V84.7508C98.6459 84.8546 98.5748 84.9341 98.4732 84.9341H97.9687C97.8671 84.9341 97.7791 84.8546 97.7791 84.7508V84.2353C97.7791 84.1523 97.7655 84.0727 97.7283 83.9828L96.9562 82.5194V84.7577C96.9562 84.8615 96.875 84.9411 96.7768 84.9411H96.2722C96.1774 84.9411 96.0928 84.858 96.0928 84.7577V79.9559C96.0928 79.8522 96.1808 79.7726 96.2722 79.7726H97.5217C98.1583 79.7726 98.6696 80.3053 98.6696 80.9557V81.4228C98.6696 81.9209 98.3649 82.3465 97.945 82.5263ZM97.5183 80.6202H96.9528V81.7203H97.5183C97.6707 81.7203 97.7994 81.5888 97.7994 81.4158V80.9073C97.8028 80.7447 97.6707 80.6202 97.5183 80.6202Z" fill="#767676"/>
<path d="M100.079 84.9414H99.5745C99.4729 84.9414 99.395 84.8583 99.395 84.758V79.963C99.395 79.8592 99.4763 79.7693 99.5745 79.7693H100.079C100.181 79.7693 100.258 79.8592 100.258 79.963V84.758C100.262 84.8618 100.181 84.9414 100.079 84.9414Z" fill="#767676"/>
<path d="M103.014 82.5474H103.519C103.62 82.5474 103.698 82.6374 103.698 82.7377V83.9936C103.698 84.5091 103.285 84.938 102.774 84.938H101.978C101.47 84.938 101.054 84.5091 101.054 83.9936V80.7138C101.054 80.1879 101.467 79.7693 101.978 79.7693H102.774C103.289 79.7693 103.698 80.1914 103.698 80.7138V81.5268C103.698 81.6306 103.617 81.7206 103.519 81.7206H103.014C102.913 81.7206 102.835 81.6306 102.835 81.5268V80.7968C102.835 80.693 102.747 80.6134 102.655 80.6134H102.114C102.012 80.6134 101.924 80.6965 101.924 80.7968V83.9001C101.924 84.0039 102.012 84.0835 102.114 84.0835H102.655C102.75 84.0835 102.835 84.0039 102.835 83.9001V82.7412C102.835 82.6374 102.916 82.5474 103.014 82.5474Z" fill="#767676"/>
<path d="M105.376 80.6134V81.7136H106.012C106.114 81.7136 106.192 81.7932 106.192 81.897V82.3537C106.192 82.4575 106.114 82.537 106.012 82.537H105.376V84.0973H106.381C106.483 84.0973 106.561 84.1769 106.561 84.2807V84.7547C106.561 84.8585 106.483 84.938 106.381 84.938H104.681C104.58 84.938 104.502 84.855 104.502 84.7547V79.9527C104.502 79.8489 104.58 79.7693 104.681 79.7693H106.381C106.483 79.7693 106.561 79.8523 106.561 79.9527V80.4266C106.561 80.5304 106.483 80.61 106.381 80.61H105.376V80.6134Z" fill="#767676"/>
<path d="M109.256 80.5718C114.481 80.5718 119.706 80.5718 124.931 80.5718C125.591 80.5718 125.591 79.5273 124.931 79.5273C119.706 79.5273 114.481 79.5273 109.256 79.5273C108.599 79.5273 108.599 80.5718 109.256 80.5718Z" fill="#767676"/>
<path d="M109.256 82.8C112.663 82.8 116.069 82.8 119.479 82.8C120.14 82.8 120.14 81.7552 119.479 81.7552C116.073 81.7552 112.666 81.7552 109.256 81.7552C108.599 81.7552 108.599 82.8 109.256 82.8Z" fill="#767676"/>
<path d="M109.256 84.8895C110.8 84.8895 112.345 84.8895 113.889 84.8895C114.549 84.8895 114.549 83.8445 113.889 83.8445C112.345 83.8445 110.8 83.8445 109.256 83.8445C108.599 83.8445 108.599 84.8895 109.256 84.8895Z" fill="#767676"/>
<path d="M32.7958 79.5275C27.571 79.5275 22.3461 79.5275 17.1212 79.5275C16.4609 79.5275 16.4609 80.572 17.1212 80.572C22.3461 80.572 27.571 80.572 32.7958 80.572C33.4562 80.572 33.4562 79.5275 32.7958 79.5275Z" fill="#767676"/>
<path d="M32.7972 81.7552C29.3907 81.7552 25.9842 81.7552 22.5743 81.7552C21.914 81.7552 21.914 82.8 22.5743 82.8C25.9808 82.8 29.3873 82.8 32.7972 82.8C33.4575 82.8 33.4575 81.7552 32.7972 81.7552Z" fill="#767676"/>
<path d="M32.7965 83.8445C31.2524 83.8445 29.7083 83.8445 28.1642 83.8445C27.5039 83.8445 27.5039 84.8895 28.1642 84.8895C29.7083 84.8895 31.2524 84.8895 32.7965 84.8895C33.4568 84.8895 33.4568 83.8445 32.7965 83.8445Z" fill="#767676"/>
</g>
<defs>
<clipPath id="clip0_2_1144">
<rect width="140" height="140" fill="white"/>
</clipPath>
</defs>
</svg>
