<svg width="140" height="140" viewBox="0 0 140 140" fill="none" xmlns="http://www.w3.org/2000/svg">
<g clip-path="url(#clip0_2_1008)">
<path d="M62.2658 101.315C62.2951 102.886 60.4679 104.543 58.5234 104.633C58.7834 105.849 59.102 107.035 58.582 108.277C57.8276 110.234 55.7989 111.3 53.7959 111.034C50.5771 110.589 49.7055 106.055 52.8108 104.693C53.9131 104.218 55.5646 105.314 54.3488 106.41C53.6824 107.031 52.5801 107.211 53.0708 108.513C53.3601 109.224 54.1438 109.373 54.7809 109.253C55.8832 109.048 56.491 108.097 56.5496 107.031C56.6961 106.111 56.3482 105.164 56.1139 104.214C54.6638 103.503 53.5615 101.872 53.968 100.215C54.2866 98.763 56.0553 99.3541 55.3595 100.274C55.0409 100.896 55.506 101.786 56.026 102.261C56.1725 101.58 56.4032 100.929 56.7803 100.304C58.2341 98.026 62.2072 97.9063 62.2658 101.315ZM60.0907 100.248C58.8127 100.013 58.2927 101.73 58.2634 102.65C58.2634 102.71 58.2634 102.77 58.2634 102.83C58.6992 102.77 59.1349 102.624 59.4828 102.385C60.38 101.76 61.0501 100.574 60.0907 100.248Z" fill="#767676"/>
<path d="M66.0675 101.049C65.7782 101.404 65.2252 102.115 64.6173 103.005C64.8187 103.005 64.9945 103.035 65.0824 103.035C65.5475 103.065 65.0531 104.311 64.5038 104.311C64.3024 104.311 64.0095 104.281 63.7202 104.281C62.358 106.268 60.9958 108.4 61.1972 108.58C61.5743 108.995 63.4016 106.893 64.156 106.002C64.6796 105.411 65.3461 106.092 64.7931 106.713C63.4895 108.105 61.545 110.832 59.9777 110.537C58.8169 110.357 58.3519 109.025 59.3113 107.693C59.7177 107.102 60.5893 105.677 61.4864 104.225C61.34 104.225 61.1971 104.225 61.0507 104.225C60.527 104.225 61.08 102.949 61.6036 102.919C61.7501 102.919 62.0101 102.919 62.2994 102.919C63.2258 101.438 64.0388 100.162 64.3024 99.9263C64.7675 99.4811 65.3168 99.1257 65.7818 99.2454C66.2395 99.3876 66.9353 100.042 66.0675 101.049Z" fill="#767676"/>
<path d="M72.2443 106.739C70.9663 108.131 69.0548 110.829 67.4876 110.563C66.909 110.443 66.6746 109.912 66.7332 109.257C66.2388 109.818 65.5724 110.323 64.8473 110.323C62.4415 110.323 63.1372 107.211 64.558 105.523C65.9789 103.832 67.7768 102.65 68.9084 103.121C69.2855 103.271 69.5162 103.567 69.6334 103.892C69.692 103.802 69.7213 103.742 69.7799 103.686C70.245 103.241 70.8235 102.886 71.2593 103.035C71.7536 103.155 72.4201 103.836 71.5779 104.842C70.5928 105.969 68.7363 108.221 69.0255 108.516C69.2855 108.782 70.9114 106.885 71.6658 105.998C72.1857 105.404 72.7936 106.144 72.2443 106.739ZM67.3997 106.739C68.3005 105.613 68.8498 104.667 68.6484 104.487C68.4763 104.307 67.5754 105.138 66.5904 106.354C65.6346 107.54 65.1403 108.696 65.2574 108.812C65.5138 109.078 66.4988 107.865 67.3997 106.739Z" fill="#767676"/>
<path d="M77.3502 101.049C77.0609 101.404 76.508 102.115 75.9001 103.005C76.1015 103.005 76.2773 103.035 76.3651 103.035C76.8302 103.065 76.3358 104.311 75.7866 104.311C75.5852 104.311 75.2922 104.281 75.0029 104.281C73.6407 106.268 72.2785 108.4 72.4799 108.58C72.8571 108.995 74.6844 106.893 75.4387 106.002C75.9624 105.411 76.6288 106.092 76.0759 106.713C74.7722 108.105 72.8278 110.832 71.2605 110.537C70.0996 110.357 69.6346 109.025 70.594 107.693C71.0005 107.102 71.872 105.677 72.7692 104.225C72.6227 104.225 72.4799 104.225 72.3334 104.225C71.8097 104.225 72.3627 102.949 72.8863 102.919C73.0328 102.919 73.2928 102.919 73.5821 102.919C74.5086 101.438 75.3215 100.162 75.5852 99.9263C76.0502 99.4811 76.5995 99.1257 77.0646 99.2454C77.5223 99.3876 78.2181 100.042 77.3502 101.049Z" fill="#767676"/>
<path d="M79.4942 106.739C78.1869 108.131 76.3047 110.829 74.7081 110.563C73.5766 110.357 73.4594 109.022 74.3895 107.69C75.3746 106.328 76.4768 104.222 77.0005 103.69C77.4655 103.245 78.0441 102.89 78.4799 103.039C78.9743 103.159 79.67 103.84 78.7985 104.846C77.8134 105.973 75.9568 108.225 76.2461 108.52C76.5061 108.786 78.1613 106.889 78.9157 106.002C79.4064 105.404 80.0435 106.145 79.4942 106.739ZM79.5528 102.235C78.1613 102.235 79.5235 99.0923 81.1201 99.4477C82.5959 99.7732 80.6551 102.59 79.5528 102.235Z" fill="#767676"/>
<path d="M86.4567 106.739C86.021 107.184 85.5596 107.776 85.0652 108.34C83.963 109.556 83.6151 110.002 82.5422 109.792C82.3664 109.762 82.2529 109.702 82.1357 109.612C81.4399 110.118 80.7442 110.383 80.1619 110.383C78.1882 110.383 77.551 108.337 78.7411 106.294C79.9312 104.221 81.872 102.886 83.2672 102.886C84.7466 102.886 85.8782 104.131 84.7173 106.47C84.3402 107.211 83.9044 107.862 83.4393 108.426C83.6407 108.337 83.9886 108.071 84.3402 107.686C84.8895 107.121 85.4717 106.44 85.8489 105.995C86.3689 105.404 87.006 106.144 86.4567 106.739ZM83.1793 104.633C82.3371 104.633 79.4955 108.722 80.3084 108.722C80.9163 108.722 84.0216 104.633 83.1793 104.633Z" fill="#767676"/>
<path d="M93.2408 106.739C91.9371 108.131 90.0513 110.829 88.4547 110.563C86.8581 110.267 87.2646 108.696 88.224 107.364C89.1504 106.032 90.3405 105.022 90.1391 104.757C89.9634 104.491 88.224 106.298 87.6747 106.889C87.0375 107.866 86.3967 108.816 85.9939 109.377C85.386 110.237 85.1224 110.563 84.4266 110.563C83.3537 110.563 83.643 109.111 84.9502 107.364C85.906 106.032 86.7482 104.637 86.8947 104.341C87.3305 103.451 87.4733 103.009 88.0848 103.009C88.5499 103.009 89.1284 103.365 89.2163 103.986C89.9121 103.425 90.6372 103.009 91.3622 103.009C92.058 103.009 93.043 103.84 92.1166 105.202C91.1901 106.564 89.7107 108.225 90 108.52C90.26 108.786 91.8859 106.889 92.6402 106.002C93.1529 105.404 93.7937 106.145 93.2408 106.739Z" fill="#767676"/>
<path d="M18.8141 64.0849L19.8101 65.978C21.1797 68.582 20.2203 71.8556 17.7009 73.2399L15.4708 74.4671L20.0042 83.0722C20.2239 83.4875 20.0738 83.9851 19.671 84.2095L17.646 85.3245C17.2395 85.5489 16.7524 85.3955 16.5327 84.984L6.40394 65.7647C6.18423 65.3495 6.33435 64.8519 6.73716 64.6274L11.7137 61.8887C14.2367 60.5007 17.4446 61.4847 18.8141 64.0849ZM15.2621 65.8471C14.9178 65.1961 14.1488 64.9342 13.5117 65.2859L11.2816 66.513L13.5886 70.8904L15.8187 69.6632C16.4559 69.3115 16.6682 68.5109 16.3387 67.8898L15.2621 65.8471Z" fill="#767676"/>
<path d="M25.4707 59.8126L27.1625 64.5079L29.876 63.4865C30.3081 63.3256 30.7731 63.5426 30.9306 63.9841L31.6337 65.937C31.7911 66.3785 31.5788 66.8537 31.1467 67.0145L28.4332 68.0359L30.8281 74.6841L35.1161 73.0716C35.5483 72.9108 36.0133 73.1278 36.1708 73.5692L36.8958 75.5858C37.0533 76.0273 36.8409 76.5024 36.4088 76.6633L29.1583 79.3907C28.7262 79.5515 28.2611 79.3345 28.1036 78.8931L20.7213 58.4096C20.5638 57.9681 20.7762 57.493 21.2083 57.3321L28.4552 54.6047C28.8873 54.4438 29.3523 54.6608 29.5098 55.1023L30.2349 57.1189C30.3923 57.5603 30.1799 58.0355 29.7478 58.1963L25.4707 59.8126Z" fill="#767676"/>
<path d="M43.554 51.3349L44.0777 53.4861C44.1875 53.9426 43.8909 54.399 43.4771 54.5038L40.7344 55.1997L45.1579 73.4197C45.2678 73.8761 45.0041 74.3251 44.5574 74.4373L42.3236 75.0022C41.9098 75.107 41.4374 74.8451 41.3276 74.3887L36.904 56.1686L34.1906 56.857C33.7438 56.9693 33.3044 56.6999 33.1945 56.2435L32.6709 54.0922C32.561 53.6358 32.8247 53.1868 33.2714 53.0746L42.5543 50.7213C42.9754 50.6166 43.4442 50.8785 43.554 51.3349Z" fill="#767676"/>
<path d="M56.9917 61.0399L60.6829 66.2103C60.8916 66.5209 61.0088 66.9099 61.06 67.2766L61.5141 70.6026C61.5764 71.0665 61.3017 71.4818 60.8476 71.5454L58.57 71.8709C58.1159 71.9345 57.6728 71.6239 57.6105 71.16L57.2919 68.833C57.2407 68.4663 57.1272 68.1109 56.9111 67.733L52.5278 61.6423L53.901 71.7212C53.9633 72.1851 53.6557 72.6041 53.2016 72.6677L50.9239 72.9932C50.4991 73.0531 50.0597 72.7426 49.9974 72.2787L47.0459 50.6579C46.9837 50.194 47.3242 49.7712 47.7454 49.7114L53.3774 48.9108C56.241 48.503 58.8812 50.5681 59.2803 53.4938L59.566 55.5889C59.8736 57.8486 58.7713 59.9737 56.9917 61.0399ZM53.8974 52.7343L51.3597 53.0972L52.0371 58.0544L54.5748 57.6915C55.2596 57.5942 55.7613 56.9133 55.6587 56.1463L55.3438 53.853C55.2449 53.1197 54.5821 52.637 53.8974 52.7343Z" fill="#767676"/>
<path d="M74.5114 51.7651L75.0057 66.6368C75.0863 69.02 73.2444 70.9992 70.9447 71.0778L67.3304 71.2012C64.9978 71.2835 63.0607 69.4353 62.9838 67.0521L62.4894 52.1804C62.4088 49.7972 64.2178 47.7844 66.5504 47.7058L70.1647 47.5823C72.4607 47.5038 74.4308 49.3856 74.5114 51.7651ZM70.5785 52.2403C70.5639 51.7689 70.1574 51.4471 69.696 51.4658L67.2645 51.5519C66.8031 51.5668 66.4223 51.9185 66.4369 52.3862L66.9056 66.4834C66.9203 66.9548 67.3304 67.3439 67.7882 67.3252L70.2197 67.2392C70.6811 67.2242 71.0619 66.8052 71.0436 66.3375L70.5785 52.2403Z" fill="#767676"/>
<path d="M82.502 48.6404L81.4328 67.4478L86.0247 67.721C86.4825 67.7472 86.823 68.14 86.7974 68.6076L86.6766 70.7514C86.6509 71.2191 86.2664 71.567 85.8087 71.5408L78.0968 71.0844C77.639 71.0582 77.2985 70.6654 77.3241 70.1977L78.5618 48.4085C78.5875 47.9408 78.972 47.5929 79.4297 47.6191L81.7257 47.7537C82.1871 47.7837 82.5276 48.1728 82.502 48.6404Z" fill="#767676"/>
<path d="M94.6489 52.854L93.9495 57.8074L96.8131 58.2302C97.2671 58.2975 97.5747 58.7165 97.5088 59.1805L97.2195 61.2419C97.1536 61.7058 96.7435 62.0201 96.2894 61.9527L93.4258 61.53L92.4371 68.5448L96.9595 69.2107C97.4136 69.2781 97.7212 69.6971 97.6553 70.161L97.355 72.2898C97.2891 72.7537 96.879 73.068 96.4249 73.0006L88.7789 71.8745C88.3248 71.8072 88.0172 71.3881 88.0831 70.9242L91.1298 49.3185C91.1957 48.8546 91.6058 48.5404 92.0599 48.6077L99.7059 49.7338C100.16 49.8012 100.468 50.2202 100.402 50.6841L100.101 52.8129C100.036 53.2768 99.6254 53.591 99.1713 53.5237L94.6489 52.854Z" fill="#767676"/>
<path d="M113.254 52.8538L115.484 53.4337C115.93 53.5497 116.183 54.0323 116.07 54.4888L111.631 72.2562C111.064 74.5346 108.742 75.9376 106.516 75.3577L103.011 74.4449C100.781 73.865 99.4043 71.493 99.9755 69.2183L104.414 51.4508C104.527 50.9944 104.974 50.6951 105.421 50.8111L107.651 51.391C108.098 51.5069 108.35 51.9896 108.237 52.446L103.894 69.8244C103.78 70.2808 104.073 70.7372 104.52 70.8532L106.878 71.4668C107.325 71.5828 107.797 71.3246 107.911 70.8682L112.254 53.4898C112.36 53.0371 112.807 52.7378 113.254 52.8538Z" fill="#767676"/>
<path d="M129.122 79.9521L127.932 82.8292C127.748 83.2595 127.243 83.4391 126.851 83.2632L124.742 82.3241C124.321 82.1371 124.134 81.6507 124.317 81.2204L125.339 78.8185C125.419 78.6352 125.482 78.4781 125.533 78.2835L128.576 68.0285L123.347 76.6897C123.131 77.0339 122.71 77.1761 122.347 77.0152L120.055 75.9976C119.692 75.8367 119.48 75.4139 119.575 75.0173L122.215 65.2038L116.942 74.4674C116.832 74.6395 116.766 74.7928 116.69 74.9762L115.668 77.3781C115.485 77.8084 115.009 77.9992 114.588 77.8121L112.478 76.873C112.057 76.686 111.87 76.1996 112.054 75.7693L113.302 72.9184C113.343 72.8249 113.434 72.6117 113.57 72.376L123.102 56.7297C123.318 56.3855 123.739 56.2434 124.131 56.4192L126.39 57.4256C126.782 57.6015 126.965 58.0093 126.87 58.4059L123.9 70.0863L130.275 59.9173C130.491 59.5731 130.912 59.431 131.275 59.5918L133.567 60.6095C133.959 60.7853 134.142 61.1931 134.047 61.5897L129.338 79.3797C129.254 79.6416 129.162 79.8586 129.122 79.9521Z" fill="#767676"/>
<path d="M72.7886 78.2125C72.774 78.2125 72.7557 78.2125 72.741 78.2125C72.7337 78.2125 72.7264 78.2125 72.7154 78.2125C72.7081 78.2125 72.7008 78.2125 72.6898 78.2125C72.6751 78.2125 72.6568 78.2125 72.6422 78.2125C49.4148 78.2125 28.9045 84.8645 16.5273 95.0332L22.379 98.015L23.0858 104.94C25.1657 103.043 27.6998 101.218 30.6732 99.5115C41.7212 93.1626 56.6251 89.6645 72.6385 89.6645C72.6532 89.6645 72.6715 89.6645 72.6861 89.6645C72.6934 89.6645 72.7008 89.6645 72.7118 89.6645C72.7191 89.6645 72.7264 89.6645 72.7374 89.6645C72.752 89.6645 72.7704 89.6645 72.785 89.6645C88.8021 89.6645 103.706 93.1626 114.75 99.5115C117.724 101.221 120.258 103.043 122.338 104.94L123.044 98.015L128.896 95.0332C116.526 84.8645 96.016 78.2125 72.7886 78.2125Z" fill="#767676"/>
<path d="M47.7599 107.518C48.9866 107.518 48.9866 105.576 47.7599 105.576C46.5332 105.576 46.5332 107.518 47.7599 107.518Z" fill="#767676"/>
<path d="M96.2838 107.518C97.5105 107.518 97.5105 105.576 96.2838 105.576C95.0571 105.576 95.0571 107.518 96.2838 107.518Z" fill="#767676"/>
<path d="M29.5209 94.5543C29.8614 95.1341 29.6783 95.8823 29.1107 96.2302C28.5505 96.5744 27.8107 96.3911 27.4702 95.8112C27.1333 95.2388 27.32 94.4794 27.8803 94.1353C28.4479 93.7874 29.184 93.9819 29.5209 94.5543Z" fill="white"/>
<path d="M35.6404 92.1111L36.0726 93.0501C36.3948 93.7498 36.1055 94.5879 35.4207 94.9208L33.9413 95.6317C33.8315 95.6841 33.707 95.6392 33.6557 95.527L31.2718 90.3563C31.2205 90.2441 31.2645 90.1169 31.3743 90.0645L32.7293 89.4135C33.414 89.0843 34.2306 89.3911 34.5529 90.0907L34.7909 90.607C34.9117 90.8689 34.952 91.142 34.9044 91.4077C35.223 91.5311 35.4866 91.7743 35.6404 92.1111ZM33.0808 91.7968L33.696 91.5012C33.8608 91.4226 33.934 91.2131 33.8571 91.0448L33.6044 90.4948C33.5239 90.3189 33.3188 90.2441 33.154 90.3227L32.5388 90.6182L33.0808 91.7968ZM34.6847 92.5114C34.6041 92.3355 34.3991 92.2607 34.2343 92.3393L33.4946 92.6947L34.2563 94.3484L34.996 93.993C35.1608 93.9144 35.234 93.7049 35.1498 93.5216L34.6847 92.5114Z" fill="white"/>
<path d="M36.5369 88.8001L37.0202 90.016L37.7233 89.7242C37.8368 89.6793 37.9577 89.7317 38.0053 89.8439L38.2067 90.349C38.2506 90.465 38.1993 90.5884 38.0895 90.6371L37.3864 90.9289L38.0675 92.6498L39.1771 92.1897C39.2869 92.1448 39.4114 92.1971 39.4554 92.3094L39.6641 92.8294C39.7081 92.9454 39.6568 93.0688 39.5469 93.1175L37.6721 93.8919C37.5585 93.9368 37.4377 93.8844 37.3901 93.7722L35.2882 88.4747C35.2442 88.3624 35.2955 88.2352 35.4053 88.1866L37.2802 87.4122C37.3901 87.3673 37.5146 87.4196 37.5585 87.5319L37.7636 88.0519C37.8075 88.1641 37.7563 88.2913 37.6464 88.34L36.5369 88.8001Z" fill="white"/>
<path d="M40.9866 87.6926L40.928 87.5167C40.8657 87.3334 40.6717 87.2436 40.4922 87.3072L40.1187 87.4419C39.9393 87.5055 39.8404 87.7 39.9027 87.8834L40.0748 88.3884C40.137 88.5717 40.3311 88.6615 40.5142 88.6054L40.8877 88.4707C41.6128 88.2126 42.3891 88.5979 42.6418 89.3387L42.9897 90.3601C43.2387 91.0896 42.8578 91.8977 42.1438 92.1521L41.7703 92.2868C41.0562 92.5412 40.2652 92.1521 40.0162 91.4189L39.7855 90.7379C39.7452 90.622 39.8038 90.4985 39.9173 90.4573L40.4849 90.2553C40.5984 90.2142 40.7193 90.274 40.7596 90.39L41.0049 91.1121C41.0672 91.2954 41.2649 91.3927 41.4443 91.3291L41.8179 91.1944C41.9973 91.1308 42.0925 90.9288 42.0302 90.7454L41.6604 89.6642C41.5981 89.4809 41.404 89.3911 41.2246 89.4547L40.8511 89.5894C40.1334 89.8363 39.3497 89.4622 39.1007 88.7326L38.9396 88.2575C38.6906 87.5279 39.0714 86.7198 39.7855 86.4654L40.159 86.3307C40.8841 86.0726 41.664 86.4654 41.9131 87.1987L41.9607 87.3409C42.0009 87.4569 41.9424 87.5803 41.8288 87.6215L41.2612 87.8235C41.1477 87.8684 41.0269 87.8085 40.9866 87.6926Z" fill="white"/>
<path d="M45.2491 84.9392L45.4102 85.4967C45.4432 85.6164 45.3736 85.7361 45.2637 85.7698L44.5533 85.983L45.9192 90.6968C45.9522 90.8165 45.8899 90.9362 45.7727 90.9698L45.1941 91.1457C45.088 91.1793 44.9598 91.1158 44.9268 90.996L43.5609 86.2823L42.8615 86.4955C42.7443 86.5292 42.6272 86.4656 42.5942 86.3459L42.4331 85.7885C42.4001 85.6688 42.4624 85.549 42.5796 85.5154L44.9818 84.7896C45.0916 84.7597 45.2161 84.8195 45.2491 84.9392Z" fill="white"/>
<path d="M52.0698 88.3137L52.4067 88.2388C52.5056 88.2164 52.6301 88.2875 52.6557 88.4072L52.7766 88.9647C52.8022 89.0844 52.7216 89.2004 52.6045 89.2303L50.942 89.6082C50.2865 89.7579 49.6383 89.3351 49.4955 88.6729L48.7155 85.0773C48.569 84.4076 48.9828 83.7454 49.6383 83.5994L50.3451 83.4386C51.0005 83.2889 51.6487 83.7117 51.7915 84.3814L52.4324 87.3446C52.5129 87.7188 52.3591 88.0967 52.0698 88.3137ZM50.7808 84.6059C50.7552 84.4862 50.6307 84.4038 50.5135 84.4338L49.891 84.576C49.7738 84.6021 49.6932 84.7294 49.7225 84.8491L50.5025 88.4484C50.5282 88.5606 50.649 88.6392 50.7662 88.613L51.6048 88.4222L50.7808 84.6059Z" fill="white"/>
<path d="M55.0471 82.5146L55.6403 82.4098C55.7575 82.3874 55.871 82.4772 55.8893 82.5969L56.6986 87.3261C56.8011 87.9322 56.3947 88.5233 55.8014 88.6281L54.8677 88.7927C54.2744 88.8975 53.6958 88.4822 53.5933 87.8761L52.784 83.1469C52.762 83.0272 52.839 82.9037 52.9561 82.885L53.5494 82.7802C53.6666 82.7578 53.7801 82.8476 53.7984 82.9673L54.5893 87.5917C54.6113 87.7114 54.7285 87.79 54.8457 87.7676L55.4719 87.6553C55.5891 87.6329 55.6769 87.5206 55.655 87.4009L54.864 82.7765C54.853 82.6568 54.9299 82.5333 55.0471 82.5146Z" fill="white"/>
<path d="M60.754 86.8923L60.8528 87.6593C60.8675 87.7828 60.7869 87.8913 60.6661 87.9062L60.0582 87.9885C59.9484 88.0035 59.8422 87.9212 59.8239 87.7977L59.7213 87.0046L58.5788 87.158L58.6813 87.9511C58.696 88.0746 58.6154 88.1831 58.4946 88.1981L57.8977 88.2804C57.7768 88.2953 57.6707 88.213 57.656 88.0896L57.5571 87.3226C57.5535 87.2889 57.5498 87.2627 57.5498 87.2066L57.6633 82.2943C57.667 82.1783 57.7512 82.0885 57.8611 82.0736L59.1427 81.9015C59.2526 81.8865 59.3515 81.9726 59.3808 82.0661L60.7283 86.7838C60.743 86.8325 60.7466 86.8587 60.754 86.8923ZM59.476 86.0356L58.6264 83.0164L58.5715 86.1553L59.476 86.0356Z" fill="white"/>
<path d="M62.1432 81.7812L62.6046 86.6935L63.8058 86.5738C63.9266 86.5625 64.0291 86.6486 64.0401 86.7721L64.0914 87.3333C64.1024 87.4567 64.0181 87.5615 63.8973 87.5727L61.8833 87.771C61.7624 87.7822 61.6599 87.6962 61.6489 87.5727L61.1142 81.8822C61.1033 81.7587 61.1875 81.654 61.3083 81.6428L61.9089 81.5829C62.0297 81.5717 62.1323 81.6577 62.1432 81.7812Z" fill="white"/>
<path d="M65.7103 87.4379L65.1098 87.4828C64.9889 87.4903 64.8901 87.4005 64.8791 87.2771L64.4872 81.5829C64.4799 81.4594 64.5678 81.3472 64.685 81.3397L65.2855 81.2948C65.4064 81.2874 65.5089 81.3846 65.5162 81.5081L65.9081 87.2023C65.9191 87.3257 65.8312 87.4305 65.7103 87.4379Z" fill="white"/>
<path d="M69.3832 81.3053L69.4089 81.8852C69.4125 82.0087 69.3137 82.1097 69.2038 82.1134L68.4641 82.1471L68.6728 87.0595C68.6765 87.183 68.5886 87.284 68.4678 87.2878L67.8672 87.314C67.7537 87.3177 67.6475 87.2279 67.6438 87.1044L67.4351 82.192L66.7027 82.2257C66.5819 82.2294 66.483 82.1396 66.4794 82.0161L66.4537 81.4362C66.4501 81.3128 66.5379 81.2117 66.6588 81.208L69.1635 81.0958C69.2697 81.0883 69.3759 81.1818 69.3832 81.3053Z" fill="white"/>
<path d="M72.6622 81.0409L73.2664 81.0334C73.3873 81.0334 73.4825 81.127 73.4825 81.2504L73.4898 82.1221C73.4898 82.2193 73.4752 82.3166 73.4312 82.4027L72.3583 84.7071L72.3803 86.9742C72.3803 87.0976 72.2887 87.1949 72.1679 87.1949L71.5637 87.2024C71.4428 87.2024 71.3476 87.1088 71.3476 86.9854L71.3256 84.7183L70.2014 82.4326C70.1648 82.3465 70.1392 82.2493 70.1392 82.152L70.1318 81.2804C70.1318 81.1569 70.2234 81.0596 70.3442 81.0596L70.9485 81.0522C71.0693 81.0522 71.1645 81.1457 71.1645 81.2691L71.1718 81.9388C71.1718 82.0099 71.1901 82.0809 71.2268 82.1408L71.831 83.3828L72.4132 82.1296C72.4389 82.0697 72.4535 81.9986 72.4535 81.9276L72.4462 81.2579C72.4498 81.1419 72.5414 81.0447 72.6622 81.0409Z" fill="white"/>
<path d="M78.9572 84.2995C78.9279 84.9768 78.3676 85.4969 77.7048 85.4632C77.0493 85.4333 76.533 84.8608 76.5659 84.1835C76.5952 83.5137 77.1629 82.986 77.8183 83.0197C78.4811 83.0534 78.9865 83.6334 78.9572 84.2995Z" fill="white"/>
<path d="M85.3642 85.5114L85.258 86.544C85.1811 87.3147 84.5073 87.8796 83.753 87.7973L82.1271 87.6252C82.0063 87.614 81.9221 87.5055 81.9367 87.382L82.5189 81.6992C82.5299 81.5757 82.6361 81.4897 82.757 81.5046L84.2474 81.6618C85.0017 81.7403 85.5437 82.4362 85.4668 83.2069L85.4082 83.7755C85.3789 84.0636 85.2763 84.318 85.0969 84.52C85.302 84.8006 85.4045 85.1448 85.3642 85.5114ZM84.3426 85.3506C84.3609 85.1598 84.2254 84.9839 84.0459 84.9652L83.233 84.8792L83.0463 86.6974L83.8592 86.7834C84.0386 86.8021 84.2107 86.66 84.229 86.4617L84.3426 85.3506ZM83.3319 83.8915L84.0093 83.9626C84.1888 83.9813 84.3609 83.8391 84.3792 83.6558L84.4414 83.0535C84.4597 82.8627 84.3243 82.6868 84.1448 82.6681L83.4674 82.5971L83.3319 83.8915Z" fill="white"/>
<path d="M87.7431 83.1133L87.56 84.4116L88.3107 84.5201C88.4316 84.5388 88.5121 84.6473 88.4938 84.767L88.4169 85.3058C88.3986 85.4293 88.2924 85.5116 88.1752 85.4929L87.4245 85.3844L87.1682 87.2214L88.351 87.3936C88.4718 87.4123 88.5524 87.5208 88.5341 87.6405L88.4572 88.198C88.4389 88.3215 88.3327 88.4038 88.2118 88.3851L86.2088 88.0932C86.088 88.0745 86.0111 87.966 86.0257 87.8463L86.8167 82.1891C86.835 82.0657 86.9412 81.9871 87.062 82.0021L89.0651 82.2939C89.1859 82.3126 89.2628 82.4211 89.2482 82.5408L89.1712 83.0983C89.1529 83.2218 89.0468 83.3004 88.9259 83.2854L87.7431 83.1133Z" fill="white"/>
<path d="M92.1152 84.4079L92.1481 84.2245C92.1811 84.0337 92.0566 83.8579 91.8699 83.8242L91.4817 83.7532C91.295 83.7195 91.1155 83.8355 91.0826 84.0263L90.9873 84.5538C90.9544 84.7446 91.0789 84.9204 91.2656 84.9616L91.6538 85.0326C92.4082 85.1748 92.8988 85.9006 92.7597 86.6675L92.5693 87.73C92.4338 88.4932 91.7124 89.002 90.969 88.8636L90.5809 88.7925C89.8375 88.6541 89.3358 87.9171 89.4713 87.1576L89.5995 86.4468C89.6215 86.3271 89.7313 86.2485 89.8485 86.271L90.4417 86.3832C90.5589 86.4057 90.6358 86.5179 90.6138 86.6376L90.4783 87.3896C90.4454 87.5804 90.5699 87.7637 90.7566 87.7974L91.1448 87.8685C91.3316 87.9021 91.511 87.7749 91.544 87.5841L91.7454 86.458C91.7783 86.2672 91.6538 86.0914 91.467 86.0577L91.0789 85.9866C90.3355 85.8407 89.8339 85.1187 89.9694 84.3592L90.0572 83.8654C90.1927 83.1059 90.9141 82.5934 91.6575 82.7318L92.0456 82.8029C92.8 82.9413 93.2907 83.6783 93.1515 84.4378L93.1259 84.5837C93.1039 84.7034 92.9941 84.782 92.8769 84.7595L92.2837 84.6473C92.1701 84.6436 92.0932 84.5313 92.1152 84.4079Z" fill="white"/>
<path d="M97.1196 84.127L96.9951 84.692C96.9695 84.8117 96.8487 84.8828 96.7388 84.8566L96.0174 84.692L94.9628 89.4883C94.9372 89.608 94.8237 89.6828 94.7065 89.6529L94.1169 89.5182C94.007 89.492 93.9265 89.376 93.9558 89.2563L95.0104 84.46L94.2963 84.2954C94.1792 84.2692 94.1059 84.1532 94.1352 84.0335L94.2597 83.4686C94.2853 83.3489 94.3989 83.274 94.516 83.304L96.9585 83.8652C97.0647 83.8913 97.1453 84.0073 97.1196 84.127Z" fill="white"/>
<path d="M102.971 87.0267L102.813 87.5655C102.597 88.3063 101.825 88.7328 101.107 88.5121L100.473 88.3175L99.7555 90.7682C99.7226 90.8879 99.6017 90.9515 99.4882 90.9178L98.9096 90.742C98.7925 90.7083 98.7302 90.5848 98.7668 90.4688L100.367 84.9913C100.4 84.8754 100.521 84.808 100.634 84.8417L102.052 85.2757C102.769 85.4964 103.187 86.2859 102.971 87.0267ZM101.993 86.6825C102.048 86.4954 101.953 86.3046 101.77 86.2485L101.136 86.0539L100.774 87.2998L101.407 87.4944C101.59 87.5505 101.773 87.442 101.825 87.2624L101.993 86.6825Z" fill="white"/>
<path d="M105.418 89.87L105.667 91.5274C105.678 91.6246 105.66 91.7294 105.631 91.8229L105.345 92.6535C105.305 92.7694 105.191 92.8331 105.078 92.7919L104.51 92.5861C104.397 92.545 104.331 92.4178 104.371 92.3018L104.572 91.7219C104.605 91.6321 104.62 91.5349 104.613 91.4189L104.312 89.4622L103.445 91.9763C103.404 92.0923 103.283 92.1522 103.17 92.111L102.602 91.9052C102.496 91.8678 102.43 91.7406 102.47 91.6246L104.334 86.2336C104.375 86.1176 104.503 86.0615 104.609 86.0989L106.015 86.604C106.729 86.8621 107.099 87.6665 106.846 88.396L106.667 88.9198C106.466 89.4809 105.96 89.8401 105.418 89.87ZM105.678 87.558L105.045 87.3298L104.616 88.5644L105.25 88.7926C105.422 88.8524 105.62 88.7589 105.686 88.5681L105.883 87.9957C105.949 87.8124 105.85 87.6178 105.678 87.558Z" fill="white"/>
<path d="M106.805 93.4956L106.245 93.2674C106.131 93.2225 106.08 93.0953 106.124 92.9831L108.197 87.6815C108.241 87.5656 108.369 87.5057 108.479 87.5506L109.039 87.7788C109.152 87.8237 109.2 87.9584 109.156 88.0744L107.083 93.3759C107.04 93.4882 106.919 93.5443 106.805 93.4956Z" fill="white"/>
<path d="M111.097 92.2871L111.646 92.5415C111.756 92.5938 111.8 92.7285 111.748 92.8408L111.148 94.2026C110.899 94.7638 110.247 95.022 109.69 94.7675L108.826 94.371C108.277 94.1166 108.028 93.4431 108.273 92.8819L109.844 89.3239C110.097 88.7552 110.745 88.5046 111.302 88.759L112.166 89.1556C112.722 89.4137 112.968 90.0759 112.719 90.6446L112.331 91.5276C112.283 91.6398 112.151 91.6959 112.041 91.6473L111.492 91.3929C111.382 91.3405 111.338 91.2058 111.39 91.0936L111.741 90.3004C111.789 90.1882 111.734 90.0572 111.635 90.0086L111.045 89.7392C110.935 89.6868 110.804 89.7317 110.752 89.844L109.269 93.2112C109.222 93.3234 109.277 93.4543 109.386 93.5067L109.976 93.7761C110.079 93.8247 110.21 93.7798 110.262 93.6676L110.818 92.4105C110.859 92.2945 110.987 92.2384 111.097 92.2871Z" fill="white"/>
<path d="M114.729 91.5464L114.136 92.7099L114.806 93.0691C114.912 93.1252 114.953 93.2562 114.898 93.3647L114.649 93.8473C114.594 93.9558 114.465 93.997 114.359 93.9408L113.689 93.5817L112.847 95.2279L113.909 95.7928C114.015 95.8489 114.055 95.9799 114 96.0884L113.744 96.586C113.689 96.6945 113.561 96.7356 113.455 96.6795L111.661 95.7217C111.554 95.6656 111.514 95.5347 111.569 95.4262L114.162 90.3566C114.216 90.2481 114.345 90.207 114.451 90.2631L116.245 91.2209C116.351 91.277 116.392 91.4079 116.337 91.5164L116.08 92.014C116.025 92.1225 115.897 92.1637 115.791 92.1076L114.729 91.5464Z" fill="white"/>
<path d="M117.922 95.7852C117.582 96.3652 116.849 96.556 116.282 96.208C115.721 95.8638 115.527 95.1117 115.868 94.5317C116.205 93.9592 116.948 93.7684 117.508 94.1089C118.08 94.4569 118.259 95.2127 117.922 95.7852Z" fill="white"/>
<path d="M75.3552 34.8172C75.3552 38.2442 72.6344 41.0239 69.2802 41.0239C65.9259 41.0239 63.2051 38.2442 63.2051 34.8172C63.2051 31.3903 69.2802 22.0858 69.2802 22.0858C69.2802 22.0858 75.3552 31.3903 75.3552 34.8172Z" fill="#767676"/>
<path d="M56.4785 43.3063C54.1349 43.3063 52.2271 41.3571 52.2271 38.9626C52.2271 36.774 55.618 31.5175 56.0061 30.9264L56.4822 30.2006L56.9582 30.9264C57.3464 31.5175 60.7373 36.774 60.7373 38.9626C60.73 41.3571 58.8221 43.3063 56.4785 43.3063ZM56.4785 32.3181C55.3104 34.2 53.3659 37.612 53.3659 38.9626C53.3659 40.7136 54.7611 42.1427 56.4785 42.1427C58.1923 42.1427 59.5911 40.7173 59.5911 38.9626C59.5911 37.612 57.6467 34.1963 56.4785 32.3181Z" fill="#767676"/>
<path d="M83.4438 42.5541C81.1002 42.5541 79.1924 40.6049 79.1924 38.2105C79.1924 36.0218 82.5833 30.7653 82.9714 30.1742L83.4475 29.4484L83.9235 30.1742C84.3117 30.7653 87.7026 36.0218 87.7026 38.2105C87.6953 40.6049 85.7874 42.5541 83.4438 42.5541ZM83.4438 31.5659C82.2757 33.4478 80.3312 36.8598 80.3312 38.2105C80.3312 39.9651 81.7264 41.3905 83.4438 41.3905C85.1576 41.3905 86.5564 39.9651 86.5564 38.2105C86.5564 36.8598 84.612 33.4478 83.4438 31.5659Z" fill="#767676"/>
</g>
<defs>
<clipPath id="clip0_2_1008">
<rect width="140" height="140" fill="white"/>
</clipPath>
</defs>
</svg>
