<svg width="234" height="53" viewBox="0 0 234 53" fill="none" xmlns="http://www.w3.org/2000/svg">
<rect width="234" height="53" fill="#FFB400"/>
<path d="M82.2976 25.0447H84.3239C83.8828 22.4943 81.7031 20.7301 78.8778 20.7301C75.4901 20.7301 73.0163 23.2805 73.0163 27.4609C73.0163 31.603 75.4197 34.179 78.9673 34.179C82.1442 34.179 84.4134 32.0952 84.4134 28.7905V27.3011H79.2678V28.9311H82.5021C82.4574 31.0405 81.0639 32.3764 78.9673 32.3764C76.6598 32.3764 74.9787 30.6314 74.9787 27.4482C74.9787 24.2777 76.6726 22.5327 78.8906 22.5327C80.6293 22.5327 81.8054 23.4915 82.2976 25.0447ZM90.9029 34.1982C93.6706 34.1982 95.4796 32.1719 95.4796 29.1357C95.4796 26.0803 93.6706 24.054 90.9029 24.054C88.1351 24.054 86.3262 26.0803 86.3262 29.1357C86.3262 32.1719 88.1351 34.1982 90.9029 34.1982ZM90.9093 32.5938C89.1003 32.5938 88.2566 31.0149 88.2566 29.1293C88.2566 27.25 89.1003 25.652 90.9093 25.652C92.7054 25.652 93.5492 27.25 93.5492 29.1293C93.5492 31.0149 92.7054 32.5938 90.9093 32.5938ZM102.53 34H107.548C110.59 34 111.965 32.4851 111.965 30.478C111.965 28.4517 110.546 27.3075 109.248 27.2372V27.1094C110.45 26.8026 111.453 25.9844 111.453 24.348C111.453 22.4112 110.111 20.9091 107.324 20.9091H102.53V34ZM104.505 32.3061V28.1129H107.426C109.012 28.1129 110.002 29.1357 110.002 30.3821C110.002 31.4815 109.254 32.3061 107.356 32.3061H104.505ZM104.505 26.5724V22.5902H107.203C108.769 22.5902 109.517 23.4148 109.517 24.5014C109.517 25.767 108.481 26.5724 107.151 26.5724H104.505ZM117.011 34.2173C118.635 34.2173 119.549 33.3928 119.913 32.6577H119.99V34H121.856V27.4801C121.856 24.6229 119.606 24.054 118.047 24.054C116.27 24.054 114.633 24.7699 113.994 26.5597L115.79 26.9688C116.072 26.272 116.787 25.6009 118.072 25.6009C119.306 25.6009 119.939 26.2464 119.939 27.3587V27.4034C119.939 28.1001 119.223 28.0874 117.459 28.2919C115.599 28.5092 113.694 28.995 113.694 31.2259C113.694 33.1562 115.145 34.2173 117.011 34.2173ZM117.427 32.6832C116.346 32.6832 115.567 32.1974 115.567 31.2514C115.567 30.2287 116.474 29.8643 117.58 29.7173C118.2 29.6342 119.67 29.468 119.945 29.1932V30.4588C119.945 31.6222 119.018 32.6832 117.427 32.6832ZM128.538 34.1982C130.858 34.1982 132.36 32.8047 132.571 30.8935H130.711C130.468 31.9545 129.643 32.581 128.55 32.581C126.933 32.581 125.891 31.2322 125.891 29.0909C125.891 26.9879 126.952 25.6648 128.55 25.6648C129.765 25.6648 130.506 26.4318 130.711 27.3523H132.571C132.366 25.3707 130.749 24.054 128.518 24.054C125.751 24.054 123.961 26.1378 123.961 29.1357C123.961 32.0952 125.687 34.1982 128.538 34.1982ZM134.615 34H136.526V30.5163L137.479 29.5639L140.815 34H143.161L138.917 28.3942L142.893 24.1818H140.604L136.692 28.3366H136.526V20.9091H134.615V34ZM149.551 34H151.527V28.2919H158.053V34H160.034V20.9091H158.053V26.598H151.527V20.9091H149.551V34ZM166.893 34.1982C169.661 34.1982 171.47 32.1719 171.47 29.1357C171.47 26.0803 169.661 24.054 166.893 24.054C164.125 24.054 162.316 26.0803 162.316 29.1357C162.316 32.1719 164.125 34.1982 166.893 34.1982ZM166.9 32.5938C165.091 32.5938 164.247 31.0149 164.247 29.1293C164.247 27.25 165.091 25.652 166.9 25.652C168.696 25.652 169.539 27.25 169.539 29.1293C169.539 31.0149 168.696 32.5938 166.9 32.5938ZM173.603 34H175.514V27.9467C175.514 26.6236 176.441 25.7031 177.528 25.7031C178.589 25.7031 179.324 26.4062 179.324 27.4737V34H181.229V27.7422C181.229 26.5597 181.951 25.7031 183.198 25.7031C184.208 25.7031 185.039 26.2656 185.039 27.5952V34H186.95V27.4162C186.95 25.1726 185.697 24.054 183.92 24.054C182.507 24.054 181.446 24.7315 180.973 25.7798H180.871C180.443 24.706 179.541 24.054 178.231 24.054C176.933 24.054 175.968 24.6996 175.559 25.7798H175.438V24.1818H173.603V34ZM193.743 34.1982C195.884 34.1982 197.399 33.1435 197.834 31.5455L196.025 31.2195C195.68 32.1463 194.849 32.6193 193.762 32.6193C192.126 32.6193 191.026 31.5582 190.975 29.6662H197.955V28.9886C197.955 25.4411 195.833 24.054 193.609 24.054C190.873 24.054 189.07 26.1378 189.07 29.1548C189.07 32.2038 190.847 34.1982 193.743 34.1982ZM190.982 28.2344C191.058 26.8409 192.068 25.6328 193.621 25.6328C195.104 25.6328 196.076 26.7322 196.082 28.2344H190.982Z" fill="#2B2B2B"/>
<path d="M34.6464 26.6464C34.4512 26.8417 34.4512 27.1583 34.6464 27.3536L37.8284 30.5355C38.0237 30.7308 38.3403 30.7308 38.5355 30.5355C38.7308 30.3403 38.7308 30.0237 38.5355 29.8284L35.7071 27L38.5355 24.1716C38.7308 23.9763 38.7308 23.6597 38.5355 23.4645C38.3403 23.2692 38.0237 23.2692 37.8284 23.4645L34.6464 26.6464ZM60 26.5L35 26.5V27.5L60 27.5V26.5Z" fill="#2B2B2B"/>
</svg>
