<svg width="154" height="51" viewBox="0 0 154 51" fill="none" xmlns="http://www.w3.org/2000/svg">
<rect width="154" height="51" rx="5" fill="#FFB400"/>
<path d="M33.5909 31H35.3466V25.9261H41.1477V31H42.9091V19.3636H41.1477V24.4205H35.3466V19.3636H33.5909V31ZM47.2216 19.3636H45.4659V31H47.2216V19.3636ZM49.7784 31H51.5341V26.5966H53.9205C53.9602 26.5966 53.9943 26.5966 54.0341 26.5966L56.3977 31H58.3977L55.8182 26.2898C57.2443 25.7614 57.9545 24.5739 57.9545 23.0114C57.9545 20.8693 56.625 19.3636 53.9261 19.3636H49.7784V31ZM51.5341 25.0852V20.8693H53.7386C55.4716 20.8693 56.1875 21.6932 56.1875 23.0114C56.1875 24.3239 55.4716 25.0852 53.7614 25.0852H51.5341ZM60.0909 31H67.4545V29.4886H61.8466V25.9261H67.0057V24.4205H61.8466V20.875H67.3864V19.3636H60.0909V31ZM73.9659 19.3636V31H75.6364V22.5739H75.7443L79.1761 30.983H80.5625L83.9943 22.5795H84.1023V31H85.7727V19.3636H83.642L79.9375 28.4091H79.8011L76.0966 19.3636H73.9659ZM88.3253 31H95.6889V29.4886H90.081V25.9261H95.2401V24.4205H90.081V20.875H95.6207V19.3636H88.3253V31Z" fill="#18191A"/>
<g clip-path="url(#clip0_3_225)">
<path d="M116.781 24.3331L113.205 20.7571L114.148 19.8145L119.333 24.9998L114.148 30.1851L113.205 29.2425L116.781 25.6665H108.667V24.3331H116.781Z" fill="#18191A"/>
</g>
<defs>
<clipPath id="clip0_3_225">
<rect width="16" height="16" fill="white" transform="translate(106 17)"/>
</clipPath>
</defs>
</svg>
