<svg width="202" height="64" viewBox="0 0 202 64" fill="none" xmlns="http://www.w3.org/2000/svg">
<rect width="202" height="64" rx="8" fill="#FFB400"/>
<g clip-path="url(#clip0_3_223)">
<path d="M33.517 41V23.5455H37.2074V30.7472H44.6989V23.5455H48.3807V41H44.6989V33.7898H37.2074V41H33.517ZM55.1136 23.5455V41H51.4233V23.5455H55.1136ZM58.1499 41V23.5455H65.0362C66.3544 23.5455 67.4794 23.7812 68.4112 24.2528C69.3487 24.7187 70.0618 25.3807 70.5504 26.2386C71.0447 27.0909 71.2919 28.0937 71.2919 29.2472C71.2919 30.4062 71.0419 31.4034 70.5419 32.2386C70.0419 33.0682 69.3175 33.7045 68.3686 34.1477C67.4254 34.5909 66.2834 34.8125 64.9425 34.8125H60.3317V31.8466H64.3459C65.0504 31.8466 65.6357 31.75 66.1016 31.5568C66.5675 31.3636 66.9141 31.0739 67.1413 30.6875C67.3743 30.3011 67.4908 29.821 67.4908 29.2472C67.4908 28.6676 67.3743 28.179 67.1413 27.7812C66.9141 27.3835 66.5646 27.0824 66.093 26.8778C65.6271 26.6676 65.0391 26.5625 64.3288 26.5625H61.8402V41H58.1499ZM67.576 33.0568L71.9141 41H67.8402L63.5959 33.0568H67.576ZM73.8999 41V23.5455H85.6612V26.5881H77.5902V30.7472H85.0561V33.7898H77.5902V37.9574H85.6953V41H73.8999ZM94.1499 23.5455H98.701L103.508 35.2727H103.712L108.519 23.5455H113.07V41H109.491V29.6392H109.346L104.829 40.9148H102.391L97.8743 29.5966H97.7294V41H94.1499V23.5455ZM116.111 41V23.5455H127.872V26.5881H119.801V30.7472H127.267V33.7898H119.801V37.9574H127.906V41H116.111Z" fill="white"/>
<path d="M155.07 32.363L149.414 38.021L148 36.606L153.657 30.95L148.707 26H160.02V37.313L155.07 32.363Z" fill="white"/>
</g>
<defs>
<clipPath id="clip0_3_223">
<rect width="138" height="32" fill="white" transform="translate(32 16)"/>
</clipPath>
</defs>
</svg>
