<svg width="14" height="14" viewBox="0 0 14 14" fill="none" xmlns="http://www.w3.org/2000/svg">
<g clip-path="url(#clip0_3_82)">
<path d="M7.00008 1.1665C8.585 1.1665 8.78275 1.17234 9.40458 1.2015C10.0258 1.23067 10.4487 1.32809 10.8209 1.47275C11.2059 1.62092 11.5302 1.82159 11.8546 2.14534C12.1512 2.43694 12.3807 2.78968 12.5272 3.179C12.6712 3.55059 12.7692 3.97409 12.7984 4.59534C12.8258 5.21717 12.8334 5.41492 12.8334 6.99984C12.8334 8.58475 12.8276 8.7825 12.7984 9.40434C12.7692 10.0256 12.6712 10.4485 12.5272 10.8207C12.3811 11.2102 12.1516 11.563 11.8546 11.8543C11.5629 12.1509 11.2102 12.3804 10.8209 12.5269C10.4493 12.671 10.0258 12.769 9.40458 12.7982C8.78275 12.8256 8.585 12.8332 7.00008 12.8332C5.41516 12.8332 5.21741 12.8273 4.59558 12.7982C3.97433 12.769 3.55141 12.671 3.17925 12.5269C2.78977 12.3808 2.43697 12.1512 2.14558 11.8543C1.8489 11.5628 1.61937 11.21 1.473 10.8207C1.32833 10.4491 1.23091 10.0256 1.20175 9.40434C1.17433 8.7825 1.16675 8.58475 1.16675 6.99984C1.16675 5.41492 1.17258 5.21717 1.20175 4.59534C1.23091 3.9735 1.32833 3.55117 1.473 3.179C1.61897 2.78944 1.84855 2.43661 2.14558 2.14534C2.43706 1.84856 2.78983 1.61901 3.17925 1.47275C3.55141 1.32809 3.97375 1.23067 4.59558 1.2015C5.21741 1.17409 5.41516 1.1665 7.00008 1.1665ZM7.00008 4.08317C6.22653 4.08317 5.48467 4.39046 4.93769 4.93744C4.39071 5.48442 4.08342 6.22629 4.08342 6.99984C4.08342 7.77339 4.39071 8.51525 4.93769 9.06223C5.48467 9.60921 6.22653 9.9165 7.00008 9.9165C7.77363 9.9165 8.5155 9.60921 9.06248 9.06223C9.60946 8.51525 9.91675 7.77339 9.91675 6.99984C9.91675 6.22629 9.60946 5.48442 9.06248 4.93744C8.5155 4.39046 7.77363 4.08317 7.00008 4.08317ZM10.7917 3.93734C10.7917 3.74395 10.7149 3.55848 10.5782 3.42174C10.4414 3.28499 10.256 3.20817 10.0626 3.20817C9.86919 3.20817 9.68373 3.28499 9.54698 3.42174C9.41024 3.55848 9.33342 3.74395 9.33342 3.93734C9.33342 4.13072 9.41024 4.31619 9.54698 4.45294C9.68373 4.58968 9.86919 4.6665 10.0626 4.6665C10.256 4.6665 10.4414 4.58968 10.5782 4.45294C10.7149 4.31619 10.7917 4.13072 10.7917 3.93734ZM7.00008 5.24984C7.46421 5.24984 7.90933 5.43421 8.23752 5.7624C8.56571 6.09059 8.75008 6.53571 8.75008 6.99984C8.75008 7.46397 8.56571 7.90909 8.23752 8.23727C7.90933 8.56546 7.46421 8.74984 7.00008 8.74984C6.53595 8.74984 6.09083 8.56546 5.76264 8.23727C5.43446 7.90909 5.25008 7.46397 5.25008 6.99984C5.25008 6.53571 5.43446 6.09059 5.76264 5.7624C6.09083 5.43421 6.53595 5.24984 7.00008 5.24984Z" fill="#1B1B1B"/>
</g>
<defs>
<clipPath id="clip0_3_82">
<rect width="14" height="14" fill="white"/>
</clipPath>
</defs>
</svg>
