<svg xmlns="http://www.w3.org/2000/svg"  viewBox="0 0 24 24" width="24px" height="24px"><path d="M19,3H5C3.9,3,3,3.9,3,5v14c0,1.1,0.9,2,2,2h14c1.1,0,2-0.9,2-2V5C21,3.9,20.1,3,19,3z M9,15.7C9,16.4,8.4,17,7.7,17	c-0.7,0-1.3-0.6-1.3-1.3v-4.5C6.5,10.6,7,10,7.7,10C8.4,10,9,10.6,9,11.3V15.7z M7.7,8.7c-0.8,0-1.3-0.5-1.3-1.2	c0-0.7,0.5-1.2,1.4-1.2c0.8,0,1.3,0.5,1.3,1.2C9.1,8.2,8.6,8.7,7.7,8.7z M18,15.8c0,0.7-0.5,1.2-1.2,1.2s-1.2-0.5-1.2-1.2v-2.6	c0-1.1-0.7-1.2-0.9-1.2c-0.2,0-1.1,0-1.1,1.2v2.6c0,0.7-0.5,1.2-1.2,1.2h-0.1c-0.7,0-1.2-0.5-1.2-1.2v-4.5c0-0.7,0.6-1.3,1.3-1.3	s1.3,0.6,1.3,1.3c0,0,0.3-1.3,2.2-1.3c1.2,0,2.2,1,2.2,3.2V15.8z"/></svg>