<svg width="14" height="14" viewBox="0 0 14 14" fill="none" xmlns="http://www.w3.org/2000/svg">
<g clip-path="url(#clip0_3_91)">
<path d="M11.6603 6.75017C11.6125 5.83195 11.2932 4.94861 10.7427 4.21209C10.575 4.3927 10.3958 4.56223 10.2061 4.71959C9.62329 5.20366 8.97203 5.59878 8.2735 5.89209C8.37091 6.09625 8.46017 6.294 8.53892 6.48067V6.48242C8.56114 6.53458 8.58253 6.58709 8.60308 6.63992C9.48625 6.54075 10.4172 6.57692 11.3197 6.69884C11.4398 6.71517 11.553 6.73267 11.6603 6.75017ZM6.18575 2.40434C6.75423 3.20535 7.27846 4.03688 7.75608 4.89517C8.4695 4.614 9.05925 4.25934 9.53408 3.86442C9.6989 3.72858 9.85406 3.58142 9.99841 3.424C9.15899 2.71801 8.09693 2.33161 7.00008 2.33317C6.7271 2.33298 6.45463 2.3566 6.18575 2.40375V2.40434ZM2.481 5.83142C2.87838 5.82139 3.27529 5.79746 3.671 5.75967C4.62746 5.67412 5.57574 5.5138 6.50716 5.28017C6.02038 4.43446 5.49482 3.61167 4.93216 2.81442C4.33117 3.11215 3.80123 3.53566 3.37831 4.05621C2.95538 4.57677 2.64936 5.18219 2.481 5.83142ZM3.3735 9.93692C3.59983 9.60617 3.89733 9.234 4.29225 8.82917C5.14041 7.96 6.14142 7.28334 7.29992 6.91L7.33608 6.8995C7.23983 6.68717 7.14942 6.49759 7.05842 6.31909C5.98742 6.63117 4.85925 6.826 3.73516 6.92692C3.18683 6.9765 2.69508 6.99809 2.33341 7.00159C2.33238 8.0706 2.69992 9.10729 3.37408 9.93692H3.3735ZM8.753 11.3253C8.52805 10.1908 8.20963 9.07694 7.801 7.995C6.63316 8.41909 5.70275 9.03917 4.9835 9.77884C4.69323 10.0719 4.43564 10.3956 4.21525 10.7443C5.01955 11.3444 5.99656 11.6679 7.00008 11.6665C7.60086 11.6674 8.19613 11.5519 8.753 11.3264V11.3253ZM9.84558 10.6982C10.7563 9.99803 11.3767 8.9865 11.588 7.85734C11.3897 7.80775 11.1382 7.75817 10.8617 7.71967C10.247 7.63115 9.62321 7.62467 9.00675 7.70042C9.35387 8.67974 9.63412 9.68148 9.84558 10.6988V10.6982ZM7.00008 12.8332C3.77833 12.8332 1.16675 10.2216 1.16675 6.99984C1.16675 3.77809 3.77833 1.1665 7.00008 1.1665C10.2218 1.1665 12.8334 3.77809 12.8334 6.99984C12.8334 10.2216 10.2218 12.8332 7.00008 12.8332Z" fill="#2B2B2B"/>
</g>
<defs>
<clipPath id="clip0_3_91">
<rect width="14" height="14" fill="white"/>
</clipPath>
</defs>
</svg>
