<svg width="14" height="14" viewBox="0 0 14 14" fill="none" xmlns="http://www.w3.org/2000/svg">
<g clip-path="url(#clip0_3_85)">
<path d="M12.9279 3.29953C12.4826 3.49652 12.0103 3.62589 11.5268 3.68337C12.0364 3.37854 12.4179 2.89879 12.6001 2.33353C12.1218 2.6182 11.5973 2.8177 11.0508 2.92562C10.6836 2.53279 10.197 2.27226 9.66648 2.18454C9.136 2.09682 8.59139 2.18682 8.11733 2.44055C7.64327 2.69428 7.26632 3.09752 7.04508 3.58758C6.82383 4.07764 6.7707 4.62707 6.89393 5.15045C5.9239 5.10183 4.97495 4.84976 4.10868 4.41059C3.2424 3.97142 2.47817 3.35498 1.86559 2.60128C1.64876 2.97371 1.53482 3.39708 1.53543 3.82803C1.53543 4.67387 1.96593 5.42112 2.62043 5.85862C2.2331 5.84642 1.85429 5.74182 1.51559 5.55354V5.58387C1.51571 6.14719 1.71064 6.69314 2.06734 7.12915C2.42403 7.56516 2.92054 7.8644 3.47268 7.97612C3.11312 8.07356 2.7361 8.08792 2.37018 8.01812C2.52585 8.503 2.82926 8.92707 3.23794 9.23093C3.64661 9.5348 4.14008 9.70325 4.64926 9.7127C4.14321 10.1101 3.56378 10.4039 2.94411 10.5773C2.32443 10.7507 1.67667 10.8002 1.03784 10.723C2.153 11.4402 3.45115 11.8209 4.77701 11.8197C9.26459 11.8197 11.7187 8.10212 11.7187 4.87804C11.7187 4.77304 11.7158 4.66687 11.7111 4.56303C12.1888 4.2178 12.601 3.79013 12.9285 3.30012L12.9279 3.29953Z" fill="#1B1B1B"/>
</g>
<defs>
<clipPath id="clip0_3_85">
<rect width="14" height="14" fill="white"/>
</clipPath>
</defs>
</svg>
