<svg width="121" height="22" viewBox="0 0 121 22" fill="none" xmlns="http://www.w3.org/2000/svg">
<path d="M1.43821 18H9.34517V16.2997H3.41335V4.90909H1.43821V18ZM15.6765 18.1982C17.8178 18.1982 19.3327 17.1435 19.7674 15.5455L17.9585 15.2195C17.6133 16.1463 16.7823 16.6193 15.6957 16.6193C14.0593 16.6193 12.9599 15.5582 12.9087 13.6662H19.8889V12.9886C19.8889 9.44105 17.7667 8.05398 15.5423 8.05398C12.8065 8.05398 11.0039 10.1378 11.0039 13.1548C11.0039 16.2038 12.7809 18.1982 15.6765 18.1982ZM12.9151 12.2344C12.9918 10.8409 14.0018 9.63281 15.555 9.63281C17.038 9.63281 18.0096 10.7322 18.016 12.2344H12.9151ZM24.8667 18.2173C26.4902 18.2173 27.4043 17.3928 27.7686 16.6577H27.8453V18H29.7118V11.4801C29.7118 8.62287 27.4618 8.05398 25.9022 8.05398C24.1252 8.05398 22.4888 8.76989 21.8496 10.5597L23.6458 10.9688C23.927 10.272 24.6429 9.60085 25.9277 9.60085C27.1614 9.60085 27.7942 10.2464 27.7942 11.3587V11.4034C27.7942 12.1001 27.0783 12.0874 25.3141 12.2919C23.454 12.5092 21.5492 12.995 21.5492 15.2259C21.5492 17.1562 23.0002 18.2173 24.8667 18.2173ZM25.2821 16.6832C24.2019 16.6832 23.4221 16.1974 23.4221 15.2514C23.4221 14.2287 24.3297 13.8643 25.4355 13.7173C26.0556 13.6342 27.5257 13.468 27.8006 13.1932V14.4588C27.8006 15.6222 26.8738 16.6832 25.2821 16.6832ZM32.2575 18H34.1687V12.0043C34.1687 10.7195 35.1594 9.79261 36.5146 9.79261C36.9109 9.79261 37.3583 9.86293 37.5117 9.90767V8.07955C37.32 8.05398 36.9428 8.0348 36.6999 8.0348C35.5494 8.0348 34.565 8.68679 34.207 9.74148H34.1048V8.18182H32.2575V18ZM41.0769 12.1705C41.0769 10.6044 42.0357 9.70952 43.3652 9.70952C44.6628 9.70952 45.449 10.5597 45.449 11.9851V18H47.3603V11.755C47.3603 9.32599 46.0243 8.05398 44.0172 8.05398C42.5407 8.05398 41.5755 8.73793 41.1216 9.77983H41.0002V8.18182H39.1657V18H41.0769V12.1705ZM54.8406 4.90909V18H56.7198V8.5206H56.8413L60.7021 17.9808H62.2617L66.1225 8.52699H66.244V18H68.1232V4.90909H65.7262L61.5586 15.0852H61.4052L57.2376 4.90909H54.8406ZM74.9771 18.1982C77.7449 18.1982 79.5538 16.1719 79.5538 13.1357C79.5538 10.0803 77.7449 8.05398 74.9771 8.05398C72.2093 8.05398 70.4004 10.0803 70.4004 13.1357C70.4004 16.1719 72.2093 18.1982 74.9771 18.1982ZM74.9835 16.5938C73.1745 16.5938 72.3308 15.0149 72.3308 13.1293C72.3308 11.25 73.1745 9.65199 74.9835 9.65199C76.7797 9.65199 77.6234 11.25 77.6234 13.1293C77.6234 15.0149 76.7797 16.5938 74.9835 16.5938ZM81.6871 18H83.5984V12.0043C83.5984 10.7195 84.5891 9.79261 85.9442 9.79261C86.3406 9.79261 86.788 9.86293 86.9414 9.90767V8.07955C86.7496 8.05398 86.3725 8.0348 86.1296 8.0348C84.979 8.0348 83.9947 8.68679 83.6367 9.74148H83.5344V8.18182H81.6871V18ZM92.4753 18.1982C94.6167 18.1982 96.1316 17.1435 96.5662 15.5455L94.7573 15.2195C94.4121 16.1463 93.5811 16.6193 92.4945 16.6193C90.8581 16.6193 89.7587 15.5582 89.7076 13.6662H96.6877V12.9886C96.6877 9.44105 94.5655 8.05398 92.3411 8.05398C89.6053 8.05398 87.8027 10.1378 87.8027 13.1548C87.8027 16.2038 89.5797 18.1982 92.4753 18.1982ZM89.714 12.2344C89.7907 10.8409 90.8006 9.63281 92.3539 9.63281C93.8368 9.63281 94.8084 10.7322 94.8148 12.2344H89.714Z" fill="#FFB400"/>
<g clip-path="url(#clip0_3_201)">
<path d="M112.879 13.0001L109.167 9.28755L110.227 8.22705L115 13.0001L110.227 17.7731L109.167 16.7126L112.879 13.0001Z" fill="#FFB400"/>
</g>
<defs>
<clipPath id="clip0_3_201">
<rect width="18" height="18" fill="white" transform="translate(103 4)"/>
</clipPath>
</defs>
</svg>
