<svg width="18" height="18" viewBox="0 0 18 18" fill="none" xmlns="http://www.w3.org/2000/svg">
<g clip-path="url(#clip0_3_184)">
<path d="M1.5 3.75L6.75 1.5L11.25 3.75L15.9772 1.72425C16.0343 1.69979 16.0966 1.68988 16.1584 1.69541C16.2202 1.70094 16.2797 1.72173 16.3316 1.75593C16.3834 1.79013 16.4259 1.83666 16.4553 1.89135C16.4847 1.94603 16.5001 2.00716 16.5 2.06925V14.25L11.25 16.5L6.75 14.25L2.02275 16.2758C1.96569 16.3002 1.90344 16.3101 1.8416 16.3046C1.77976 16.2991 1.72026 16.2783 1.66844 16.2441C1.61662 16.2099 1.5741 16.1633 1.54471 16.1087C1.51531 16.054 1.49994 15.9928 1.5 15.9307V3.75ZM11.25 14.823V5.382L11.2013 5.403L6.75 3.177V12.618L6.79875 12.597L11.25 14.823Z" fill="#2B2B2B"/>
</g>
<defs>
<clipPath id="clip0_3_184">
<rect width="18" height="18" fill="white"/>
</clipPath>
</defs>
</svg>
