<svg width="74" height="74" viewBox="0 0 74 74" fill="none" xmlns="http://www.w3.org/2000/svg">
<g clip-path="url(#clip0_3_171)">
<path d="M37 0C29.0176 0 22.5217 6.7533 22.5217 15.0526V37C22.5217 45.3009 29.0176 52.0526 37 52.0526C44.9823 52.0526 51.4782 45.3009 51.4782 37V15.0526C51.4782 6.7533 44.9823 0 37 0ZM37 48.8352C31.3116 48.8352 26.6062 44.3743 25.8549 38.6087H48.1434C47.3938 44.3759 42.6883 48.8352 37 48.8352ZM48.2609 35.3913H25.7391V15.0526C25.7391 8.52609 30.7904 3.21739 37 3.21739C43.2095 3.21739 48.2609 8.52609 48.2609 15.0526V35.3913Z" fill="#FFB400"/>
<path d="M59.5218 28.9565C58.6338 28.9565 57.9131 29.6772 57.9131 30.5652V37C57.9131 48.5312 48.5312 57.9131 37.0001 57.9131C25.4689 57.9131 16.087 48.5312 16.087 37V30.5652C16.087 29.6772 15.3663 28.9565 14.4783 28.9565C13.5903 28.9565 12.8696 29.6772 12.8696 30.5652V37C12.8696 49.7618 22.8355 60.2151 35.3914 61.0484V70.7826H27.3479C26.4599 70.7826 25.7392 71.5033 25.7392 72.3913C25.7392 73.2793 26.4599 74 27.3479 74H46.6522C47.5402 74 48.2609 73.2793 48.2609 72.3913C48.2609 71.5033 47.5402 70.7826 46.6522 70.7826H38.6088V61.0484C51.1646 60.2151 61.1305 49.7618 61.1305 37V30.5652C61.1305 29.6772 60.4098 28.9565 59.5218 28.9565Z" fill="#FFB400"/>
</g>
<defs>
<clipPath id="clip0_3_171">
<rect width="74" height="74" fill="#FFB400"/>
</clipPath>
</defs>
</svg>
