<svg width="189" height="58" viewBox="0 0 189 58" fill="none" xmlns="http://www.w3.org/2000/svg">
<g filter="url(#filter0_d_3_73)">
<rect x="10" y="9" width="169" height="38" rx="19" fill="white"/>
</g>
<path d="M61.2415 28.9091C61.2415 25.5781 59.1733 23.679 56.4737 23.679C53.7592 23.679 51.706 25.5781 51.706 28.9091C51.706 32.2251 53.7592 34.1392 56.4737 34.1392C59.1733 34.1392 61.2415 32.2401 61.2415 28.9091ZM59.0589 28.9091C59.0589 31.0668 58.0348 32.2351 56.4737 32.2351C54.9077 32.2351 53.8885 31.0668 53.8885 28.9091C53.8885 26.7514 54.9077 25.5831 56.4737 25.5831C58.0348 25.5831 59.0589 26.7514 59.0589 28.9091ZM62.8361 34H64.9888V30.3906H66.5598L68.4888 34H70.8652L68.7026 30.0426C69.861 29.5455 70.5023 28.5362 70.5023 27.1442C70.5023 25.1207 69.165 23.8182 66.8532 23.8182H62.8361V34ZM64.9888 28.6605V25.5781H66.4405C67.6834 25.5781 68.285 26.13 68.285 27.1442C68.285 28.1534 67.6834 28.6605 66.4505 28.6605H64.9888ZM75.633 34C78.7353 34 80.6145 32.081 80.6145 28.8991C80.6145 25.7273 78.7353 23.8182 75.6628 23.8182H72.0236V34H75.633ZM74.1763 32.1555V25.6626H75.5485C77.4576 25.6626 78.4668 26.6371 78.4668 28.8991C78.4668 31.1712 77.4576 32.1555 75.5435 32.1555H74.1763ZM82.2092 34H89.0898V32.2251H84.3619V29.794H88.717V28.0192H84.3619V25.593H89.07V23.8182H82.2092V34ZM90.7814 34H92.9341V30.3906H94.5051L96.4341 34H98.8105L96.6479 30.0426C97.8063 29.5455 98.4476 28.5362 98.4476 27.1442C98.4476 25.1207 97.1103 23.8182 94.7985 23.8182H90.7814V34ZM92.9341 28.6605V25.5781H94.3858C95.6287 25.5781 96.2303 26.13 96.2303 27.1442C96.2303 28.1534 95.6287 28.6605 94.3958 28.6605H92.9341ZM111.725 23.8182H109.583V30.2216H109.493L105.098 23.8182H103.209V34H105.362V27.5916H105.436L109.866 34H111.725V23.8182ZM122.861 28.9091C122.861 25.5781 120.792 23.679 118.093 23.679C115.378 23.679 113.325 25.5781 113.325 28.9091C113.325 32.2251 115.378 34.1392 118.093 34.1392C120.792 34.1392 122.861 32.2401 122.861 28.9091ZM120.678 28.9091C120.678 31.0668 119.654 32.2351 118.093 32.2351C116.527 32.2351 115.508 31.0668 115.508 28.9091C115.508 26.7514 116.527 25.5831 118.093 25.5831C119.654 25.5831 120.678 26.7514 120.678 28.9091ZM126.364 34H128.462L130.396 27.343H130.476L132.415 34H134.513L137.426 23.8182H135.075L133.389 30.9077H133.3L131.445 23.8182H129.432L127.572 30.8928H127.488L125.803 23.8182H123.451L126.364 34Z" fill="#2B2B2B"/>
<defs>
<filter id="filter0_d_3_73" x="0" y="0" width="189" height="58" filterUnits="userSpaceOnUse" color-interpolation-filters="sRGB">
<feFlood flood-opacity="0" result="BackgroundImageFix"/>
<feColorMatrix in="SourceAlpha" type="matrix" values="0 0 0 0 0 0 0 0 0 0 0 0 0 0 0 0 0 0 127 0" result="hardAlpha"/>
<feOffset dy="1"/>
<feGaussianBlur stdDeviation="5"/>
<feColorMatrix type="matrix" values="0 0 0 0 0 0 0 0 0 0 0 0 0 0 0 0 0 0 0.15 0"/>
<feBlend mode="normal" in2="BackgroundImageFix" result="effect1_dropShadow_3_73"/>
<feBlend mode="normal" in="SourceGraphic" in2="effect1_dropShadow_3_73" result="shape"/>
</filter>
</defs>
</svg>
