<svg width="159" height="35" viewBox="0 0 159 35" fill="none" xmlns="http://www.w3.org/2000/svg">
<rect width="159" height="35" fill="#FFB400"/>
<path d="M31.5376 15.6172H33.3125C33.2777 13.897 31.8111 12.679 29.6435 12.679C27.5057 12.679 25.8999 13.8821 25.9048 15.6818C25.9048 17.1435 26.9439 17.9837 28.6193 18.4162L29.7777 18.7145C30.8764 18.9929 31.6023 19.3359 31.6072 20.1264C31.6023 20.9964 30.777 21.5781 29.5739 21.5781C28.4205 21.5781 27.5256 21.0611 27.451 19.9922H25.6364C25.7109 22.0156 27.2173 23.1541 29.5888 23.1541C32.0298 23.1541 33.4467 21.9361 33.4517 20.1413C33.4467 18.3764 31.9901 17.571 30.4588 17.2081L29.5043 16.9695C28.669 16.7706 27.7642 16.4176 27.7741 15.5675C27.7791 14.8018 28.4652 14.2401 29.6186 14.2401C30.7173 14.2401 31.4432 14.7521 31.5376 15.6172ZM35.0961 23H41.758V21.4538H36.9405V18.6747H41.3752V17.1286H36.9405V14.3643H41.7182V12.8182H35.0961V23ZM51.9672 12.8182H50.1326V19.7585H50.0431L45.2505 12.8182H43.6V23H45.4444V16.0646H45.5289L50.3265 23H51.9672V12.8182ZM57.4272 23C60.5295 23 62.369 21.081 62.369 17.8991C62.369 14.7273 60.5295 12.8182 57.4968 12.8182H53.9769V23H57.4272ZM55.8214 21.4041V14.4141H57.3924C59.4606 14.4141 60.5394 15.5675 60.5394 17.8991C60.5394 20.2408 59.4606 21.4041 57.3377 21.4041H55.8214ZM67.5941 12.8182V23H69.364V15.9901H69.4585L72.2724 22.9702H73.5948L76.4087 16.005H76.5032V23H78.2731V12.8182H76.016L72.9933 20.196H72.8739L69.8512 12.8182H67.5941ZM80.2816 23H86.9435V21.4538H82.1261V18.6747H86.5607V17.1286H82.1261V14.3643H86.9038V12.8182H80.2816V23ZM94.3189 15.6172H96.0938C96.0589 13.897 94.5923 12.679 92.4247 12.679C90.2869 12.679 88.6811 13.8821 88.6861 15.6818C88.6861 17.1435 89.7251 17.9837 91.4006 18.4162L92.5589 18.7145C93.6577 18.9929 94.3835 19.3359 94.3885 20.1264C94.3835 20.9964 93.5582 21.5781 92.3551 21.5781C91.2017 21.5781 90.3068 21.0611 90.2322 19.9922H88.4176C88.4922 22.0156 89.9986 23.1541 92.37 23.1541C94.8111 23.1541 96.228 21.9361 96.233 20.1413C96.228 18.3764 94.7713 17.571 93.2401 17.2081L92.2855 16.9695C91.4503 16.7706 90.5455 16.4176 90.5554 15.5675C90.5604 14.8018 91.2464 14.2401 92.3999 14.2401C93.4986 14.2401 94.2244 14.7521 94.3189 15.6172ZM103.411 15.6172H105.186C105.151 13.897 103.684 12.679 101.517 12.679C99.3787 12.679 97.7729 13.8821 97.7779 15.6818C97.7779 17.1435 98.8169 17.9837 100.492 18.4162L101.651 18.7145C102.749 18.9929 103.475 19.3359 103.48 20.1264C103.475 20.9964 102.65 21.5781 101.447 21.5781C100.294 21.5781 99.3986 21.0611 99.324 19.9922H97.5094C97.584 22.0156 99.0904 23.1541 101.462 23.1541C103.903 23.1541 105.32 21.9361 105.325 20.1413C105.32 18.3764 103.863 17.571 102.332 17.2081L101.377 16.9695C100.542 16.7706 99.6373 16.4176 99.6472 15.5675C99.6522 14.8018 100.338 14.2401 101.492 14.2401C102.59 14.2401 103.316 14.7521 103.411 15.6172ZM108.113 23L108.953 20.4893H112.781L113.626 23H115.595L112.005 12.8182H109.728L106.144 23H108.113ZM109.45 19.0078L110.827 14.9062H110.907L112.284 19.0078H109.45ZM123.278 16.0696H125.158C124.844 14.071 123.114 12.679 120.862 12.679C118.197 12.679 116.199 14.6378 116.199 17.919C116.199 21.1406 118.108 23.1392 120.917 23.1392C123.438 23.1392 125.242 21.5185 125.242 18.8935V17.6705H121.111V19.1122H123.457C123.428 20.5639 122.458 21.4837 120.927 21.4837C119.222 21.4837 118.053 20.206 118.053 17.8991C118.053 15.6072 119.241 14.3345 120.887 14.3345C122.115 14.3345 122.95 14.9908 123.278 16.0696ZM127.026 23H133.688V21.4538H128.87V18.6747H133.305V17.1286H128.87V14.3643H133.648V12.8182H127.026V23Z" fill="white"/>
</svg>
